solid ascii
  facet normal 9.951847e-001 -0.000000e+000 9.801714e-002
    outer loop
      vertex   -4.200000e+001 3.500000e+000 8.000000e+000
      vertex   -4.200000e+001 1.700000e+001 8.000000e+000
      vertex   -4.200961e+001 1.699039e+001 8.097545e+000
    endloop
  endfacet
  facet normal 9.569278e-001 1.480510e-004 2.903258e-001
    outer loop
      vertex   -4.201604e+001 3.500000e+000 8.125612e+000
      vertex   -4.200961e+001 1.699039e+001 8.097545e+000
      vertex   -4.203806e+001 1.696194e+001 8.191342e+000
    endloop
  endfacet
  facet normal 9.265614e-001 -3.206439e-004 3.761434e-001
    outer loop
      vertex   -4.203806e+001 1.696194e+001 8.191342e+000
      vertex   -4.204206e+001 3.500000e+000 8.189718e+000
      vertex   -4.201604e+001 3.500000e+000 8.125612e+000
    endloop
  endfacet
  facet normal 7.966879e-001 8.916946e-004 6.043903e-001
    outer loop
      vertex   -4.203806e+001 1.696194e+001 8.191342e+000
      vertex   -4.214478e+001 3.500000e+000 8.351883e+000
      vertex   -4.206543e+001 3.500000e+000 8.247274e+000
    endloop
  endfacet
  facet normal 7.730037e-001 1.687915e-005 6.344016e-001
    outer loop
      vertex   -4.214478e+001 3.500000e+000 8.351883e+000
      vertex   -4.208427e+001 1.691573e+001 8.277785e+000
      vertex   -4.214645e+001 1.685355e+001 8.353553e+000
    endloop
  endfacet
  facet normal 8.822267e-001 -1.379318e-003 4.708228e-001
    outer loop
      vertex   -4.214478e+001 3.500000e+000 8.351883e+000
      vertex   -4.203806e+001 1.696194e+001 8.191342e+000
      vertex   -4.208427e+001 1.691573e+001 8.277785e+000
    endloop
  endfacet
  facet normal 6.118722e-001 -2.275612e-005 7.909566e-001
    outer loop
      vertex   -4.214645e+001 1.685355e+001 8.353553e+000
      vertex   -4.214663e+001 3.500000e+000 8.353313e+000
      vertex   -4.214478e+001 3.500000e+000 8.351883e+000
    endloop
  endfacet
  facet normal 9.265614e-001 -3.206439e-004 3.761434e-001
    outer loop
      vertex   -4.206543e+001 3.500000e+000 8.247274e+000
      vertex   -4.204206e+001 3.500000e+000 8.189718e+000
      vertex   -4.203806e+001 1.696194e+001 8.191342e+000
    endloop
  endfacet
  facet normal 6.344069e-001 -2.274667e-005 7.729993e-001
    outer loop
      vertex   -4.214663e+001 3.500000e+000 8.353313e+000
      vertex   -4.214645e+001 1.685355e+001 8.353553e+000
      vertex   -4.222221e+001 1.677779e+001 8.415735e+000
    endloop
  endfacet
  facet normal 4.712743e-001 1.574347e-004 8.819867e-001
    outer loop
      vertex   -4.224864e+001 3.500000e+000 8.432225e+000
      vertex   -4.222221e+001 1.677779e+001 8.415735e+000
      vertex   -4.230866e+001 1.669134e+001 8.461940e+000
    endloop
  endfacet
  facet normal 3.848592e-001 -3.280630e-004 9.229752e-001
    outer loop
      vertex   -4.230866e+001 1.669134e+001 8.461940e+000
      vertex   -4.231032e+001 3.500000e+000 8.457946e+000
      vertex   -4.224864e+001 3.500000e+000 8.432225e+000
    endloop
  endfacet
  facet normal 2.905836e-001 -3.264169e-004 9.568496e-001
    outer loop
      vertex   -4.231032e+001 3.500000e+000 8.457946e+000
      vertex   -4.230866e+001 1.669134e+001 8.461940e+000
      vertex   -4.240245e+001 1.659755e+001 8.490393e+000
    endloop
  endfacet
  facet normal 9.834895e-002 -3.350375e-004 9.951519e-001
    outer loop
      vertex   -4.236983e+001 3.500000e+000 8.482759e+000
      vertex   -4.240245e+001 1.659755e+001 8.490393e+000
      vertex   -4.250000e+001 1.650000e+001 8.500000e+000
    endloop
  endfacet
  facet normal 1.313048e-001 0.000000e+000 9.913420e-001
    outer loop
      vertex   -4.250000e+001 1.650000e+001 8.500000e+000
      vertex   -4.250000e+001 3.500000e+000 8.500000e+000
      vertex   -4.236983e+001 3.500000e+000 8.482759e+000
    endloop
  endfacet
  facet normal 3.848592e-001 4.206571e-004 9.229752e-001
    outer loop
      vertex   -4.240245e+001 1.659755e+001 8.490393e+000
      vertex   -4.236983e+001 3.500000e+000 8.482759e+000
      vertex   -4.231032e+001 3.500000e+000 8.457946e+000
    endloop
  endfacet
  facet normal 6.118722e-001 -2.354441e-004 7.909566e-001
    outer loop
      vertex   -4.222221e+001 1.677779e+001 8.415735e+000
      vertex   -4.224864e+001 3.500000e+000 8.432225e+000
      vertex   -4.214663e+001 3.500000e+000 8.353313e+000
    endloop
  endfacet
  facet normal 9.919498e-001 -2.092082e-004 1.266318e-001
    outer loop
      vertex   -4.200961e+001 1.699039e+001 8.097545e+000
      vertex   -4.201604e+001 3.500000e+000 8.125612e+000
      vertex   -4.200000e+001 3.500000e+000 8.000000e+000
    endloop
  endfacet
  facet normal 0.000000e+000 1.950903e-001 9.807853e-001
    outer loop
      vertex   -5.700000e+001 1.669134e+001 8.461940e+000
      vertex   -5.700000e+001 1.650000e+001 8.500000e+000
      vertex   -4.250000e+001 1.650000e+001 8.500000e+000
    endloop
  endfacet
  facet normal -1.301428e-003 9.930590e-002 9.950561e-001
    outer loop
      vertex   -4.250000e+001 1.650000e+001 8.500000e+000
      vertex   -4.240245e+001 1.659755e+001 8.490393e+000
      vertex   -5.700000e+001 1.669134e+001 8.461940e+000
    endloop
  endfacet
  facet normal 3.232371e-017 5.555702e-001 8.314696e-001
    outer loop
      vertex   -5.700000e+001 1.685355e+001 8.353553e+000
      vertex   -5.700000e+001 1.669134e+001 8.461940e+000
      vertex   -4.230866e+001 1.669134e+001 8.461940e+000
    endloop
  endfacet
  facet normal -1.286599e-003 4.723967e-001 8.813851e-001
    outer loop
      vertex   -4.230866e+001 1.669134e+001 8.461940e+000
      vertex   -4.222221e+001 1.677779e+001 8.415735e+000
      vertex   -5.700000e+001 1.685355e+001 8.353553e+000
    endloop
  endfacet
  facet normal 0.000000e+000 8.314696e-001 5.555702e-001
    outer loop
      vertex   -5.700000e+001 1.696194e+001 8.191342e+000
      vertex   -5.700000e+001 1.685355e+001 8.353553e+000
      vertex   -4.214645e+001 1.685355e+001 8.353553e+000
    endloop
  endfacet
  facet normal -1.276793e-003 7.735234e-001 6.337664e-001
    outer loop
      vertex   -4.214645e+001 1.685355e+001 8.353553e+000
      vertex   -4.208427e+001 1.691573e+001 8.277785e+000
      vertex   -5.700000e+001 1.696194e+001 8.191342e+000
    endloop
  endfacet
  facet normal 0.000000e+000 9.807853e-001 1.950903e-001
    outer loop
      vertex   -5.700000e+001 1.700000e+001 8.000000e+000
      vertex   -5.700000e+001 1.696194e+001 8.191342e+000
      vertex   -4.203806e+001 1.696194e+001 8.191342e+000
    endloop
  endfacet
  facet normal -1.273259e-003 9.570468e-001 2.899307e-001
    outer loop
      vertex   -4.203806e+001 1.696194e+001 8.191342e+000
      vertex   -4.200961e+001 1.699039e+001 8.097545e+000
      vertex   -5.700000e+001 1.700000e+001 8.000000e+000
    endloop
  endfacet
  facet normal 0.000000e+000 9.951847e-001 9.801714e-002
    outer loop
      vertex   -4.200961e+001 1.699039e+001 8.097545e+000
      vertex   -4.200000e+001 1.700000e+001 8.000000e+000
      vertex   -5.700000e+001 1.700000e+001 8.000000e+000
    endloop
  endfacet
  facet normal 0.000000e+000 8.819213e-001 4.713967e-001
    outer loop
      vertex   -4.208427e+001 1.691573e+001 8.277785e+000
      vertex   -4.203806e+001 1.696194e+001 8.191342e+000
      vertex   -5.700000e+001 1.696194e+001 8.191342e+000
    endloop
  endfacet
  facet normal 0.000000e+000 6.343933e-001 7.730105e-001
    outer loop
      vertex   -4.222221e+001 1.677779e+001 8.415735e+000
      vertex   -4.214645e+001 1.685355e+001 8.353553e+000
      vertex   -5.700000e+001 1.685355e+001 8.353553e+000
    endloop
  endfacet
  facet normal -4.451830e-017 2.902847e-001 9.569403e-001
    outer loop
      vertex   -4.240245e+001 1.659755e+001 8.490393e+000
      vertex   -4.230866e+001 1.669134e+001 8.461940e+000
      vertex   -5.700000e+001 1.669134e+001 8.461940e+000
    endloop
  endfacet
  facet normal 0.000000e+000 1.000000e+000 0.000000e+000
    outer loop
      vertex   -4.200000e+001 1.700000e+001 0.000000e+000
      vertex   -5.700000e+001 1.700000e+001 0.000000e+000
      vertex   -5.700000e+001 1.700000e+001 8.000000e+000
    endloop
  endfacet
  facet normal -0.000000e+000 1.000000e+000 0.000000e+000
    outer loop
      vertex   -5.700000e+001 1.700000e+001 8.000000e+000
      vertex   -4.200000e+001 1.700000e+001 8.000000e+000
      vertex   -4.200000e+001 1.700000e+001 0.000000e+000
    endloop
  endfacet
  facet normal -1.000000e+000 0.000000e+000 0.000000e+000
    outer loop
      vertex   -5.700000e+001 1.700000e+001 8.000000e+000
      vertex   -5.700000e+001 1.650000e+001 8.500000e+000
      vertex   -5.700000e+001 1.669134e+001 8.461940e+000
    endloop
  endfacet
  facet normal -1.000000e+000 0.000000e+000 0.000000e+000
    outer loop
      vertex   -5.700000e+001 1.550000e+001 0.000000e+000
      vertex   -5.700000e+001 1.650000e+001 8.500000e+000
      vertex   -5.700000e+001 1.700000e+001 8.000000e+000
    endloop
  endfacet
  facet normal -1.000000e+000 0.000000e+000 0.000000e+000
    outer loop
      vertex   -5.700000e+001 1.669134e+001 8.461940e+000
      vertex   -5.700000e+001 1.685355e+001 8.353553e+000
      vertex   -5.700000e+001 1.700000e+001 8.000000e+000
    endloop
  endfacet
  facet normal -1.000000e+000 0.000000e+000 0.000000e+000
    outer loop
      vertex   -5.700000e+001 1.685355e+001 8.353553e+000
      vertex   -5.700000e+001 1.696194e+001 8.191342e+000
      vertex   -5.700000e+001 1.700000e+001 8.000000e+000
    endloop
  endfacet
  facet normal -1.000000e+000 0.000000e+000 0.000000e+000
    outer loop
      vertex   -5.700000e+001 1.550000e+001 0.000000e+000
      vertex   -5.700000e+001 1.550000e+001 8.500000e+000
      vertex   -5.700000e+001 1.650000e+001 8.500000e+000
    endloop
  endfacet
  facet normal -1.000000e+000 0.000000e+000 -0.000000e+000
    outer loop
      vertex   -5.700000e+001 1.700000e+001 8.000000e+000
      vertex   -5.700000e+001 1.700000e+001 0.000000e+000
      vertex   -5.700000e+001 1.550000e+001 0.000000e+000
    endloop
  endfacet
  facet normal 0.000000e+000 1.000000e+000 0.000000e+000
    outer loop
      vertex   -5.700000e+001 1.550000e+001 8.500000e+000
      vertex   -5.700000e+001 1.550000e+001 0.000000e+000
      vertex   -6.000000e+001 1.550000e+001 0.000000e+000
    endloop
  endfacet
  facet normal 0.000000e+000 1.000000e+000 0.000000e+000
    outer loop
      vertex   -6.000000e+001 1.550000e+001 0.000000e+000
      vertex   -6.000000e+001 1.550000e+001 8.500000e+000
      vertex   -5.700000e+001 1.550000e+001 8.500000e+000
    endloop
  endfacet
  facet normal -1.000000e+000 0.000000e+000 0.000000e+000
    outer loop
      vertex   -6.000000e+001 1.403806e+001 8.191342e+000
      vertex   -6.000000e+001 1.414645e+001 8.353553e+000
      vertex   -6.000000e+001 1.430866e+001 8.461940e+000
    endloop
  endfacet
  facet normal -1.000000e+000 0.000000e+000 0.000000e+000
    outer loop
      vertex   -6.000000e+001 1.450000e+001 8.500000e+000
      vertex   -6.000000e+001 1.400000e+001 8.000000e+000
      vertex   -6.000000e+001 1.403806e+001 8.191342e+000
    endloop
  endfacet
  facet normal -1.000000e+000 0.000000e+000 -0.000000e+000
    outer loop
      vertex   -6.000000e+001 1.430866e+001 8.461940e+000
      vertex   -6.000000e+001 1.450000e+001 8.500000e+000
      vertex   -6.000000e+001 1.403806e+001 8.191342e+000
    endloop
  endfacet
  facet normal -1.000000e+000 0.000000e+000 0.000000e+000
    outer loop
      vertex   -6.000000e+001 1.550000e+001 0.000000e+000
      vertex   -6.000000e+001 1.400000e+001 0.000000e+000
      vertex   -6.000000e+001 1.400000e+001 8.000000e+000
    endloop
  endfacet
  facet normal -1.000000e+000 0.000000e+000 0.000000e+000
    outer loop
      vertex   -6.000000e+001 1.400000e+001 8.000000e+000
      vertex   -6.000000e+001 1.550000e+001 8.500000e+000
      vertex   -6.000000e+001 1.550000e+001 0.000000e+000
    endloop
  endfacet
  facet normal -1.000000e+000 0.000000e+000 -0.000000e+000
    outer loop
      vertex   -6.000000e+001 1.450000e+001 8.500000e+000
      vertex   -6.000000e+001 1.550000e+001 8.500000e+000
      vertex   -6.000000e+001 1.400000e+001 8.000000e+000
    endloop
  endfacet
  facet normal 0.000000e+000 -9.807853e-001 1.950903e-001
    outer loop
      vertex   -6.000000e+001 1.400000e+001 8.000000e+000
      vertex   -4.500000e+001 1.400000e+001 8.000000e+000
      vertex   -4.500000e+001 1.403806e+001 8.191342e+000
    endloop
  endfacet
  facet normal 0.000000e+000 -8.314696e-001 5.555702e-001
    outer loop
      vertex   -6.000000e+001 1.403806e+001 8.191342e+000
      vertex   -4.500000e+001 1.403806e+001 8.191342e+000
      vertex   -4.500000e+001 1.414645e+001 8.353553e+000
    endloop
  endfacet
  facet normal 0.000000e+000 -5.555702e-001 8.314696e-001
    outer loop
      vertex   -6.000000e+001 1.414645e+001 8.353553e+000
      vertex   -4.500000e+001 1.414645e+001 8.353553e+000
      vertex   -4.500000e+001 1.430866e+001 8.461940e+000
    endloop
  endfacet
  facet normal 0.000000e+000 -1.950903e-001 9.807853e-001
    outer loop
      vertex   -6.000000e+001 1.430866e+001 8.461940e+000
      vertex   -4.500000e+001 1.430866e+001 8.461940e+000
      vertex   -4.500000e+001 1.450000e+001 8.500000e+000
    endloop
  endfacet
  facet normal 0.000000e+000 -1.950903e-001 9.807853e-001
    outer loop
      vertex   -4.500000e+001 1.450000e+001 8.500000e+000
      vertex   -6.000000e+001 1.450000e+001 8.500000e+000
      vertex   -6.000000e+001 1.430866e+001 8.461940e+000
    endloop
  endfacet
  facet normal 0.000000e+000 -5.555702e-001 8.314696e-001
    outer loop
      vertex   -4.500000e+001 1.430866e+001 8.461940e+000
      vertex   -6.000000e+001 1.430866e+001 8.461940e+000
      vertex   -6.000000e+001 1.414645e+001 8.353553e+000
    endloop
  endfacet
  facet normal 0.000000e+000 -8.314696e-001 5.555702e-001
    outer loop
      vertex   -4.500000e+001 1.414645e+001 8.353553e+000
      vertex   -6.000000e+001 1.414645e+001 8.353553e+000
      vertex   -6.000000e+001 1.403806e+001 8.191342e+000
    endloop
  endfacet
  facet normal 0.000000e+000 -9.807853e-001 1.950903e-001
    outer loop
      vertex   -4.500000e+001 1.403806e+001 8.191342e+000
      vertex   -6.000000e+001 1.403806e+001 8.191342e+000
      vertex   -6.000000e+001 1.400000e+001 8.000000e+000
    endloop
  endfacet
  facet normal 0.000000e+000 -0.000000e+000 1.000000e+000
    outer loop
      vertex   -4.500000e+001 1.450000e+001 8.500000e+000
      vertex   -4.250000e+001 1.650000e+001 8.500000e+000
      vertex   -5.700000e+001 1.550000e+001 8.500000e+000
    endloop
  endfacet
  facet normal 0.000000e+000 -0.000000e+000 1.000000e+000
    outer loop
      vertex   -4.250000e+001 3.500000e+000 8.500000e+000
      vertex   -4.250000e+001 1.650000e+001 8.500000e+000
      vertex   -4.500000e+001 1.450000e+001 8.500000e+000
    endloop
  endfacet
  facet normal 0.000000e+000 0.000000e+000 1.000000e+000
    outer loop
      vertex   -5.700000e+001 1.550000e+001 8.500000e+000
      vertex   -6.000000e+001 1.450000e+001 8.500000e+000
      vertex   -4.500000e+001 1.450000e+001 8.500000e+000
    endloop
  endfacet
  facet normal 0.000000e+000 0.000000e+000 1.000000e+000
    outer loop
      vertex   -5.700000e+001 1.550000e+001 8.500000e+000
      vertex   -6.000000e+001 1.550000e+001 8.500000e+000
      vertex   -6.000000e+001 1.450000e+001 8.500000e+000
    endloop
  endfacet
  facet normal 0.000000e+000 0.000000e+000 1.000000e+000
    outer loop
      vertex   -4.250000e+001 1.650000e+001 8.500000e+000
      vertex   -5.700000e+001 1.650000e+001 8.500000e+000
      vertex   -5.700000e+001 1.550000e+001 8.500000e+000
    endloop
  endfacet
  facet normal 0.000000e+000 0.000000e+000 1.000000e+000
    outer loop
      vertex   -4.500000e+001 1.450000e+001 8.500000e+000
      vertex   -4.500000e+001 3.500000e+000 8.500000e+000
      vertex   -4.250000e+001 3.500000e+000 8.500000e+000
    endloop
  endfacet
  facet normal 0.000000e+000 7.071068e-001 7.071068e-001
    outer loop
      vertex   -4.250000e+001 3.500000e+000 8.500000e+000
      vertex   -4.500000e+001 3.500000e+000 8.500000e+000
      vertex   -4.500000e+001 3.000000e+000 9.000000e+000
    endloop
  endfacet
  facet normal -0.000000e+000 7.071068e-001 7.071068e-001
    outer loop
      vertex   -4.500000e+001 3.000000e+000 9.000000e+000
      vertex   -4.250000e+001 3.000000e+000 9.000000e+000
      vertex   -4.250000e+001 3.500000e+000 8.500000e+000
    endloop
  endfacet
  facet normal 9.324933e-002 7.040258e-001 7.040258e-001
    outer loop
      vertex   -4.223966e+001 3.000000e+000 8.965518e+000
      vertex   -4.236983e+001 3.500000e+000 8.482759e+000
      vertex   -4.250000e+001 3.500000e+000 8.500000e+000
    endloop
  endfacet
  facet normal 2.722317e-001 7.041717e-001 6.557683e-001
    outer loop
      vertex   -4.223966e+001 3.000000e+000 8.965518e+000
      vertex   -4.200000e+001 3.000000e+000 8.866025e+000
      vertex   -4.231032e+001 3.500000e+000 8.457946e+000
    endloop
  endfacet
  facet normal 3.630440e-001 7.139650e-001 5.987095e-001
    outer loop
      vertex   -4.231032e+001 3.500000e+000 8.457946e+000
      vertex   -4.200000e+001 3.000000e+000 8.866025e+000
      vertex   -4.200000e+001 3.004500e+000 8.860659e+000
    endloop
  endfacet
  facet normal 2.733404e-001 7.039648e-001 6.555292e-001
    outer loop
      vertex   -4.200000e+001 3.004500e+000 8.860659e+000
      vertex   -4.224864e+001 3.500000e+000 8.432225e+000
      vertex   -4.231032e+001 3.500000e+000 8.457946e+000
    endloop
  endfacet
  facet normal 4.466689e-001 7.124703e-001 5.411774e-001
    outer loop
      vertex   -4.224864e+001 3.500000e+000 8.432225e+000
      vertex   -4.200000e+001 3.155144e+000 8.681015e+000
      vertex   -4.200000e+001 3.296202e+000 8.495310e+000
    endloop
  endfacet
  facet normal 4.345360e-001 7.040258e-001 5.617172e-001
    outer loop
      vertex   -4.200000e+001 3.296202e+000 8.495310e+000
      vertex   -4.214478e+001 3.500000e+000 8.351883e+000
      vertex   -4.214663e+001 3.500000e+000 8.353313e+000
    endloop
  endfacet
  facet normal 3.870904e-001 7.065093e-001 5.924573e-001
    outer loop
      vertex   -4.224864e+001 3.500000e+000 8.432225e+000
      vertex   -4.200000e+001 3.004500e+000 8.860659e+000
      vertex   -4.200000e+001 3.155144e+000 8.681015e+000
    endloop
  endfacet
  facet normal 5.628135e-001 7.215346e-001 4.032726e-001
    outer loop
      vertex   -4.214478e+001 3.500000e+000 8.351883e+000
      vertex   -4.200000e+001 3.364536e+000 8.392192e+000
      vertex   -4.200000e+001 3.424725e+000 8.284501e+000
    endloop
  endfacet
  facet normal 5.306875e-001 7.065162e-001 4.681940e-001
    outer loop
      vertex   -4.214478e+001 3.500000e+000 8.351883e+000
      vertex   -4.200000e+001 3.296202e+000 8.495310e+000
      vertex   -4.200000e+001 3.364536e+000 8.392192e+000
    endloop
  endfacet
  facet normal 6.580203e-001 7.040258e-001 2.671274e-001
    outer loop
      vertex   -4.200000e+001 3.483433e+000 8.129774e+000
      vertex   -4.201604e+001 3.500000e+000 8.125612e+000
      vertex   -4.204206e+001 3.500000e+000 8.189718e+000
    endloop
  endfacet
  facet normal 6.580203e-001 7.040258e-001 2.671274e-001
    outer loop
      vertex   -4.204206e+001 3.500000e+000 8.189718e+000
      vertex   -4.200000e+001 3.424725e+000 8.284501e+000
      vertex   -4.200000e+001 3.483433e+000 8.129774e+000
    endloop
  endfacet
  facet normal 7.042433e-001 7.042433e-001 8.990334e-002
    outer loop
      vertex   -4.200000e+001 3.500000e+000 8.000000e+000
      vertex   -4.201604e+001 3.500000e+000 8.125612e+000
      vertex   -4.200000e+001 3.483433e+000 8.129774e+000
    endloop
  endfacet
  facet normal 6.580203e-001 7.040258e-001 2.671274e-001
    outer loop
      vertex   -4.204206e+001 3.500000e+000 8.189718e+000
      vertex   -4.206543e+001 3.500000e+000 8.247274e+000
      vertex   -4.200000e+001 3.424725e+000 8.284501e+000
    endloop
  endfacet
  facet normal 5.657876e-001 7.040258e-001 4.292227e-001
    outer loop
      vertex   -4.200000e+001 3.424725e+000 8.284501e+000
      vertex   -4.206543e+001 3.500000e+000 8.247274e+000
      vertex   -4.214478e+001 3.500000e+000 8.351883e+000
    endloop
  endfacet
  facet normal 4.345360e-001 7.040258e-001 5.617172e-001
    outer loop
      vertex   -4.200000e+001 3.296202e+000 8.495310e+000
      vertex   -4.214663e+001 3.500000e+000 8.353313e+000
      vertex   -4.224864e+001 3.500000e+000 8.432225e+000
    endloop
  endfacet
  facet normal 2.733172e-001 7.040258e-001 6.554735e-001
    outer loop
      vertex   -4.231032e+001 3.500000e+000 8.457946e+000
      vertex   -4.236983e+001 3.500000e+000 8.482759e+000
      vertex   -4.223966e+001 3.000000e+000 8.965518e+000
    endloop
  endfacet
  facet normal 9.324933e-002 7.040258e-001 7.040258e-001
    outer loop
      vertex   -4.250000e+001 3.500000e+000 8.500000e+000
      vertex   -4.250000e+001 3.000000e+000 9.000000e+000
      vertex   -4.223966e+001 3.000000e+000 8.965518e+000
    endloop
  endfacet
  facet normal -0.000000e+000 1.000000e+000 0.000000e+000
    outer loop
      vertex   -4.500000e+001 3.000000e+000 1.300000e+001
      vertex   -4.200000e+001 3.000000e+000 1.300000e+001
      vertex   -4.250000e+001 3.000000e+000 9.000000e+000
    endloop
  endfacet
  facet normal 0.000000e+000 1.000000e+000 0.000000e+000
    outer loop
      vertex   -4.200000e+001 3.000000e+000 1.300000e+001
      vertex   -4.223966e+001 3.000000e+000 8.965518e+000
      vertex   -4.250000e+001 3.000000e+000 9.000000e+000
    endloop
  endfacet
  facet normal 0.000000e+000 1.000000e+000 0.000000e+000
    outer loop
      vertex   -4.200000e+001 3.000000e+000 1.300000e+001
      vertex   -4.200000e+001 3.000000e+000 8.866025e+000
      vertex   -4.223966e+001 3.000000e+000 8.965518e+000
    endloop
  endfacet
  facet normal 0.000000e+000 1.000000e+000 0.000000e+000
    outer loop
      vertex   -4.250000e+001 3.000000e+000 9.000000e+000
      vertex   -4.500000e+001 3.000000e+000 9.000000e+000
      vertex   -4.500000e+001 3.000000e+000 1.300000e+001
    endloop
  endfacet
  facet normal 0.000000e+000 1.305262e-001 9.914449e-001
    outer loop
      vertex   -4.500000e+001 2.258819e+000 1.396593e+001
      vertex   -4.500000e+001 2.000000e+000 1.400000e+001
      vertex   -4.300000e+001 2.000000e+000 1.400000e+001
    endloop
  endfacet
  facet normal -7.554494e-003 7.292158e-002 9.973091e-001
    outer loop
      vertex   -4.300000e+001 2.000000e+000 1.400000e+001
      vertex   -4.286947e+001 2.130526e+000 1.399144e+001
      vertex   -4.500000e+001 2.258819e+000 1.396593e+001
    endloop
  endfacet
  facet normal 1.458897e-016 3.826834e-001 9.238795e-001
    outer loop
      vertex   -4.500000e+001 2.500000e+000 1.386603e+001
      vertex   -4.500000e+001 2.258819e+000 1.396593e+001
      vertex   -4.274118e+001 2.258819e+000 1.396593e+001
    endloop
  endfacet
  facet normal -6.814197e-003 3.275354e-001 9.448143e-001
    outer loop
      vertex   -4.274118e+001 2.258819e+000 1.396593e+001
      vertex   -4.261732e+001 2.382683e+000 1.392388e+001
      vertex   -4.500000e+001 2.500000e+000 1.386603e+001
    endloop
  endfacet
  facet normal 6.286579e-016 6.087614e-001 7.933533e-001
    outer loop
      vertex   -4.500000e+001 2.707107e+000 1.370711e+001
      vertex   -4.500000e+001 2.500000e+000 1.386603e+001
      vertex   -4.250000e+001 2.500000e+000 1.386603e+001
    endloop
  endfacet
  facet normal -6.284738e-003 5.598966e-001 8.285387e-001
    outer loop
      vertex   -4.250000e+001 2.500000e+000 1.386603e+001
      vertex   -4.239124e+001 2.608761e+000 1.379335e+001
      vertex   -4.500000e+001 2.707107e+000 1.370711e+001
    endloop
  endfacet
  facet normal 2.434617e-016 7.933533e-001 6.087614e-001
    outer loop
      vertex   -4.500000e+001 2.866025e+000 1.350000e+001
      vertex   -4.500000e+001 2.707107e+000 1.370711e+001
      vertex   -4.229289e+001 2.707107e+000 1.370711e+001
    endloop
  endfacet
  facet normal -5.930542e-003 7.543991e-001 6.563893e-001
    outer loop
      vertex   -4.229289e+001 2.707107e+000 1.370711e+001
      vertex   -4.220665e+001 2.793353e+000 1.360876e+001
      vertex   -4.500000e+001 2.866025e+000 1.350000e+001
    endloop
  endfacet
  facet normal -9.286925e-017 9.238795e-001 3.826834e-001
    outer loop
      vertex   -4.500000e+001 2.965926e+000 1.325882e+001
      vertex   -4.500000e+001 2.866025e+000 1.350000e+001
      vertex   -4.213397e+001 2.866025e+000 1.350000e+001
    endloop
  endfacet
  facet normal -5.726917e-003 8.979755e-001 4.400083e-001
    outer loop
      vertex   -4.213397e+001 2.866025e+000 1.350000e+001
      vertex   -4.207612e+001 2.923880e+000 1.338268e+001
      vertex   -4.500000e+001 2.965926e+000 1.325882e+001
    endloop
  endfacet
  facet normal 1.452952e-016 9.914449e-001 1.305262e-001
    outer loop
      vertex   -4.500000e+001 3.000000e+000 1.300000e+001
      vertex   -4.500000e+001 2.965926e+000 1.325882e+001
      vertex   -4.203407e+001 2.965926e+000 1.325882e+001
    endloop
  endfacet
  facet normal -5.659529e-003 9.809844e-001 1.940042e-001
    outer loop
      vertex   -4.203407e+001 2.965926e+000 1.325882e+001
      vertex   -4.200856e+001 2.991445e+000 1.313053e+001
      vertex   -4.500000e+001 3.000000e+000 1.300000e+001
    endloop
  endfacet
  facet normal 0.000000e+000 9.978589e-001 6.540313e-002
    outer loop
      vertex   -4.200856e+001 2.991445e+000 1.313053e+001
      vertex   -4.200000e+001 3.000000e+000 1.300000e+001
      vertex   -4.500000e+001 3.000000e+000 1.300000e+001
    endloop
  endfacet
  facet normal 1.385878e-016 9.469301e-001 3.214395e-001
    outer loop
      vertex   -4.207612e+001 2.923880e+000 1.338268e+001
      vertex   -4.203407e+001 2.965926e+000 1.325882e+001
      vertex   -4.500000e+001 2.965926e+000 1.325882e+001
    endloop
  endfacet
  facet normal -2.074052e-016 8.314696e-001 5.555702e-001
    outer loop
      vertex   -4.220665e+001 2.793353e+000 1.360876e+001
      vertex   -4.213397e+001 2.866025e+000 1.350000e+001
      vertex   -4.500000e+001 2.866025e+000 1.350000e+001
    endloop
  endfacet
  facet normal 4.671931e-017 6.593458e-001 7.518398e-001
    outer loop
      vertex   -4.239124e+001 2.608761e+000 1.379335e+001
      vertex   -4.229289e+001 2.707107e+000 1.370711e+001
      vertex   -4.500000e+001 2.707107e+000 1.370711e+001
    endloop
  endfacet
  facet normal 4.603660e-016 4.422887e-001 8.968727e-001
    outer loop
      vertex   -4.261732e+001 2.382683e+000 1.392388e+001
      vertex   -4.250000e+001 2.500000e+000 1.386603e+001
      vertex   -4.500000e+001 2.500000e+000 1.386603e+001
    endloop
  endfacet
  facet normal 7.558822e-017 1.950903e-001 9.807853e-001
    outer loop
      vertex   -4.286947e+001 2.130526e+000 1.399144e+001
      vertex   -4.274118e+001 2.258819e+000 1.396593e+001
      vertex   -4.500000e+001 2.258819e+000 1.396593e+001
    endloop
  endfacet
  facet normal 0.000000e+000 0.000000e+000 1.000000e+000
    outer loop
      vertex   -4.300000e+001 2.000000e+000 1.400000e+001
      vertex   -4.500000e+001 2.000000e+000 1.400000e+001
      vertex   -4.500000e+001 -2.000000e+000 1.400000e+001
    endloop
  endfacet
  facet normal 0.000000e+000 0.000000e+000 1.000000e+000
    outer loop
      vertex   -4.500000e+001 -2.000000e+000 1.400000e+001
      vertex   -4.300000e+001 -2.000000e+000 1.400000e+001
      vertex   -4.300000e+001 2.000000e+000 1.400000e+001
    endloop
  endfacet
  facet normal 6.540313e-002 -0.000000e+000 9.978589e-001
    outer loop
      vertex   -4.286947e+001 -2.130526e+000 1.399144e+001
      vertex   -4.286947e+001 2.130526e+000 1.399144e+001
      vertex   -4.300000e+001 2.000000e+000 1.400000e+001
    endloop
  endfacet
  facet normal 6.540313e-002 0.000000e+000 9.978589e-001
    outer loop
      vertex   -4.300000e+001 2.000000e+000 1.400000e+001
      vertex   -4.300000e+001 -2.000000e+000 1.400000e+001
      vertex   -4.286947e+001 -2.130526e+000 1.399144e+001
    endloop
  endfacet
  facet normal 1.950903e-001 -0.000000e+000 9.807853e-001
    outer loop
      vertex   -4.274118e+001 -2.258819e+000 1.396593e+001
      vertex   -4.274118e+001 2.258819e+000 1.396593e+001
      vertex   -4.286947e+001 2.130526e+000 1.399144e+001
    endloop
  endfacet
  facet normal 3.214395e-001 0.000000e+000 9.469301e-001
    outer loop
      vertex   -4.261732e+001 2.382683e+000 1.392388e+001
      vertex   -4.274118e+001 2.258819e+000 1.396593e+001
      vertex   -4.274118e+001 -2.258819e+000 1.396593e+001
    endloop
  endfacet
  facet normal 3.214395e-001 0.000000e+000 9.469301e-001
    outer loop
      vertex   -4.274118e+001 -2.258819e+000 1.396593e+001
      vertex   -4.261732e+001 -2.382683e+000 1.392388e+001
      vertex   -4.261732e+001 2.382683e+000 1.392388e+001
    endloop
  endfacet
  facet normal 4.422887e-001 -3.111652e-016 8.968727e-001
    outer loop
      vertex   -4.250000e+001 -2.500000e+000 1.386603e+001
      vertex   -4.250000e+001 2.500000e+000 1.386603e+001
      vertex   -4.261732e+001 2.382683e+000 1.392388e+001
    endloop
  endfacet
  facet normal 5.555702e-001 1.859701e-016 8.314696e-001
    outer loop
      vertex   -4.239124e+001 -2.608761e+000 1.379335e+001
      vertex   -4.239124e+001 2.608761e+000 1.379335e+001
      vertex   -4.250000e+001 2.500000e+000 1.386603e+001
    endloop
  endfacet
  facet normal 6.593458e-001 3.769341e-016 7.518398e-001
    outer loop
      vertex   -4.239124e+001 -2.608761e+000 1.379335e+001
      vertex   -4.229289e+001 2.707107e+000 1.370711e+001
      vertex   -4.239124e+001 2.608761e+000 1.379335e+001
    endloop
  endfacet
  facet normal 5.555702e-001 -2.884740e-016 8.314696e-001
    outer loop
      vertex   -4.250000e+001 2.500000e+000 1.386603e+001
      vertex   -4.250000e+001 -2.500000e+000 1.386603e+001
      vertex   -4.239124e+001 -2.608761e+000 1.379335e+001
    endloop
  endfacet
  facet normal 7.518398e-001 2.047329e-016 6.593458e-001
    outer loop
      vertex   -4.220665e+001 -2.793353e+000 1.360876e+001
      vertex   -4.220665e+001 2.793353e+000 1.360876e+001
      vertex   -4.229289e+001 2.707107e+000 1.370711e+001
    endloop
  endfacet
  facet normal 8.314696e-001 1.725096e-016 5.555702e-001
    outer loop
      vertex   -4.220665e+001 -2.793353e+000 1.360876e+001
      vertex   -4.213397e+001 2.866025e+000 1.350000e+001
      vertex   -4.220665e+001 2.793353e+000 1.360876e+001
    endloop
  endfacet
  facet normal 7.518398e-001 -2.112556e-016 6.593458e-001
    outer loop
      vertex   -4.229289e+001 2.707107e+000 1.370711e+001
      vertex   -4.229289e+001 -2.707107e+000 1.370711e+001
      vertex   -4.220665e+001 -2.793353e+000 1.360876e+001
    endloop
  endfacet
  facet normal 8.968727e-001 0.000000e+000 4.422887e-001
    outer loop
      vertex   -4.207612e+001 2.923880e+000 1.338268e+001
      vertex   -4.213397e+001 2.866025e+000 1.350000e+001
      vertex   -4.213397e+001 -2.866025e+000 1.350000e+001
    endloop
  endfacet
  facet normal 8.968727e-001 1.319296e-016 4.422887e-001
    outer loop
      vertex   -4.213397e+001 -2.866025e+000 1.350000e+001
      vertex   -4.207612e+001 -2.923880e+000 1.338268e+001
      vertex   -4.207612e+001 2.923880e+000 1.338268e+001
    endloop
  endfacet
  facet normal 9.469301e-001 -9.400245e-017 3.214395e-001
    outer loop
      vertex   -4.203407e+001 -2.965926e+000 1.325882e+001
      vertex   -4.203407e+001 2.965926e+000 1.325882e+001
      vertex   -4.207612e+001 2.923880e+000 1.338268e+001
    endloop
  endfacet
  facet normal 9.807853e-001 -0.000000e+000 1.950903e-001
    outer loop
      vertex   -4.200856e+001 -2.991445e+000 1.313053e+001
      vertex   -4.200856e+001 2.991445e+000 1.313053e+001
      vertex   -4.203407e+001 2.965926e+000 1.325882e+001
    endloop
  endfacet
  facet normal 9.978589e-001 -0.000000e+000 6.540313e-002
    outer loop
      vertex   -4.200856e+001 -2.991445e+000 1.313053e+001
      vertex   -4.200000e+001 3.000000e+000 1.300000e+001
      vertex   -4.200856e+001 2.991445e+000 1.313053e+001
    endloop
  endfacet
  facet normal 9.807853e-001 -5.705263e-017 1.950903e-001
    outer loop
      vertex   -4.203407e+001 2.965926e+000 1.325882e+001
      vertex   -4.203407e+001 -2.965926e+000 1.325882e+001
      vertex   -4.200856e+001 -2.991445e+000 1.313053e+001
    endloop
  endfacet
  facet normal 9.978589e-001 0.000000e+000 6.540313e-002
    outer loop
      vertex   -4.200856e+001 -2.991445e+000 1.313053e+001
      vertex   -4.200000e+001 -3.000000e+000 1.300000e+001
      vertex   -4.200000e+001 3.000000e+000 1.300000e+001
    endloop
  endfacet
  facet normal 9.469301e-001 9.535423e-017 3.214395e-001
    outer loop
      vertex   -4.207612e+001 -2.923880e+000 1.338268e+001
      vertex   -4.203407e+001 -2.965926e+000 1.325882e+001
      vertex   -4.207612e+001 2.923880e+000 1.338268e+001
    endloop
  endfacet
  facet normal 8.314696e-001 0.000000e+000 5.555702e-001
    outer loop
      vertex   -4.220665e+001 -2.793353e+000 1.360876e+001
      vertex   -4.213397e+001 -2.866025e+000 1.350000e+001
      vertex   -4.213397e+001 2.866025e+000 1.350000e+001
    endloop
  endfacet
  facet normal 6.593458e-001 -2.406045e-016 7.518398e-001
    outer loop
      vertex   -4.239124e+001 -2.608761e+000 1.379335e+001
      vertex   -4.229289e+001 -2.707107e+000 1.370711e+001
      vertex   -4.229289e+001 2.707107e+000 1.370711e+001
    endloop
  endfacet
  facet normal 4.422887e-001 -0.000000e+000 8.968727e-001
    outer loop
      vertex   -4.261732e+001 -2.382683e+000 1.392388e+001
      vertex   -4.250000e+001 -2.500000e+000 1.386603e+001
      vertex   -4.261732e+001 2.382683e+000 1.392388e+001
    endloop
  endfacet
  facet normal 1.950903e-001 -0.000000e+000 9.807853e-001
    outer loop
      vertex   -4.286947e+001 -2.130526e+000 1.399144e+001
      vertex   -4.274118e+001 -2.258819e+000 1.396593e+001
      vertex   -4.286947e+001 2.130526e+000 1.399144e+001
    endloop
  endfacet
  facet normal -5.659529e-003 -9.809844e-001 1.940042e-001
    outer loop
      vertex   -4.500000e+001 -3.000000e+000 1.300000e+001
      vertex   -4.200856e+001 -2.991445e+000 1.313053e+001
      vertex   -4.203407e+001 -2.965926e+000 1.325882e+001
    endloop
  endfacet
  facet normal 0.000000e+000 -9.978589e-001 6.540313e-002
    outer loop
      vertex   -4.500000e+001 -3.000000e+000 1.300000e+001
      vertex   -4.200000e+001 -3.000000e+000 1.300000e+001
      vertex   -4.200856e+001 -2.991445e+000 1.313053e+001
    endloop
  endfacet
  facet normal -5.726917e-003 -8.979755e-001 4.400083e-001
    outer loop
      vertex   -4.500000e+001 -2.965926e+000 1.325882e+001
      vertex   -4.207612e+001 -2.923880e+000 1.338268e+001
      vertex   -4.213397e+001 -2.866025e+000 1.350000e+001
    endloop
  endfacet
  facet normal 4.954376e-017 -9.469301e-001 3.214395e-001
    outer loop
      vertex   -4.500000e+001 -2.965926e+000 1.325882e+001
      vertex   -4.203407e+001 -2.965926e+000 1.325882e+001
      vertex   -4.207612e+001 -2.923880e+000 1.338268e+001
    endloop
  endfacet
  facet normal -5.930542e-003 -7.543991e-001 6.563893e-001
    outer loop
      vertex   -4.500000e+001 -2.866025e+000 1.350000e+001
      vertex   -4.220665e+001 -2.793353e+000 1.360876e+001
      vertex   -4.229289e+001 -2.707107e+000 1.370711e+001
    endloop
  endfacet
  facet normal 4.117782e-017 -8.314696e-001 5.555702e-001
    outer loop
      vertex   -4.500000e+001 -2.866025e+000 1.350000e+001
      vertex   -4.213397e+001 -2.866025e+000 1.350000e+001
      vertex   -4.220665e+001 -2.793353e+000 1.360876e+001
    endloop
  endfacet
  facet normal -6.284738e-003 -5.598966e-001 8.285387e-001
    outer loop
      vertex   -4.500000e+001 -2.707107e+000 1.370711e+001
      vertex   -4.239124e+001 -2.608761e+000 1.379335e+001
      vertex   -4.250000e+001 -2.500000e+000 1.386603e+001
    endloop
  endfacet
  facet normal 0.000000e+000 -6.593458e-001 7.518398e-001
    outer loop
      vertex   -4.500000e+001 -2.707107e+000 1.370711e+001
      vertex   -4.229289e+001 -2.707107e+000 1.370711e+001
      vertex   -4.239124e+001 -2.608761e+000 1.379335e+001
    endloop
  endfacet
  facet normal -6.814197e-003 -3.275354e-001 9.448143e-001
    outer loop
      vertex   -4.500000e+001 -2.500000e+000 1.386603e+001
      vertex   -4.261732e+001 -2.382683e+000 1.392388e+001
      vertex   -4.274118e+001 -2.258819e+000 1.396593e+001
    endloop
  endfacet
  facet normal 0.000000e+000 -4.422887e-001 8.968727e-001
    outer loop
      vertex   -4.500000e+001 -2.500000e+000 1.386603e+001
      vertex   -4.250000e+001 -2.500000e+000 1.386603e+001
      vertex   -4.261732e+001 -2.382683e+000 1.392388e+001
    endloop
  endfacet
  facet normal -7.554494e-003 -7.292158e-002 9.973091e-001
    outer loop
      vertex   -4.500000e+001 -2.258819e+000 1.396593e+001
      vertex   -4.286947e+001 -2.130526e+000 1.399144e+001
      vertex   -4.300000e+001 -2.000000e+000 1.400000e+001
    endloop
  endfacet
  facet normal 1.498251e-016 -1.950903e-001 9.807853e-001
    outer loop
      vertex   -4.500000e+001 -2.258819e+000 1.396593e+001
      vertex   -4.274118e+001 -2.258819e+000 1.396593e+001
      vertex   -4.286947e+001 -2.130526e+000 1.399144e+001
    endloop
  endfacet
  facet normal 0.000000e+000 -1.305262e-001 9.914449e-001
    outer loop
      vertex   -4.300000e+001 -2.000000e+000 1.400000e+001
      vertex   -4.500000e+001 -2.000000e+000 1.400000e+001
      vertex   -4.500000e+001 -2.258819e+000 1.396593e+001
    endloop
  endfacet
  facet normal 2.938925e-016 -3.826834e-001 9.238795e-001
    outer loop
      vertex   -4.274118e+001 -2.258819e+000 1.396593e+001
      vertex   -4.500000e+001 -2.258819e+000 1.396593e+001
      vertex   -4.500000e+001 -2.500000e+000 1.386603e+001
    endloop
  endfacet
  facet normal 0.000000e+000 -6.087614e-001 7.933533e-001
    outer loop
      vertex   -4.250000e+001 -2.500000e+000 1.386603e+001
      vertex   -4.500000e+001 -2.500000e+000 1.386603e+001
      vertex   -4.500000e+001 -2.707107e+000 1.370711e+001
    endloop
  endfacet
  facet normal 0.000000e+000 -7.933533e-001 6.087614e-001
    outer loop
      vertex   -4.229289e+001 -2.707107e+000 1.370711e+001
      vertex   -4.500000e+001 -2.707107e+000 1.370711e+001
      vertex   -4.500000e+001 -2.866025e+000 1.350000e+001
    endloop
  endfacet
  facet normal 1.877711e-016 -9.238795e-001 3.826834e-001
    outer loop
      vertex   -4.213397e+001 -2.866025e+000 1.350000e+001
      vertex   -4.500000e+001 -2.866025e+000 1.350000e+001
      vertex   -4.500000e+001 -2.965926e+000 1.325882e+001
    endloop
  endfacet
  facet normal -6.862741e-017 -9.914449e-001 1.305262e-001
    outer loop
      vertex   -4.203407e+001 -2.965926e+000 1.325882e+001
      vertex   -4.500000e+001 -2.965926e+000 1.325882e+001
      vertex   -4.500000e+001 -3.000000e+000 1.300000e+001
    endloop
  endfacet
  facet normal 0.000000e+000 -1.000000e+000 0.000000e+000
    outer loop
      vertex   -4.500000e+001 -3.000000e+000 1.300000e+001
      vertex   -4.500000e+001 -3.000000e+000 9.000000e+000
      vertex   -4.250000e+001 -3.000000e+000 9.000000e+000
    endloop
  endfacet
  facet normal 0.000000e+000 -1.000000e+000 0.000000e+000
    outer loop
      vertex   -4.250000e+001 -3.000000e+000 9.000000e+000
      vertex   -4.200000e+001 -3.000000e+000 1.300000e+001
      vertex   -4.500000e+001 -3.000000e+000 1.300000e+001
    endloop
  endfacet
  facet normal 0.000000e+000 -1.000000e+000 0.000000e+000
    outer loop
      vertex   -4.250000e+001 -3.000000e+000 9.000000e+000
      vertex   -4.223966e+001 -3.000000e+000 8.965518e+000
      vertex   -4.200000e+001 -3.000000e+000 1.300000e+001
    endloop
  endfacet
  facet normal 0.000000e+000 -1.000000e+000 0.000000e+000
    outer loop
      vertex   -4.223966e+001 -3.000000e+000 8.965518e+000
      vertex   -4.200000e+001 -3.000000e+000 8.866025e+000
      vertex   -4.200000e+001 -3.000000e+000 1.300000e+001
    endloop
  endfacet
  facet normal 0.000000e+000 -7.071068e-001 7.071068e-001
    outer loop
      vertex   -4.250000e+001 -3.000000e+000 9.000000e+000
      vertex   -4.500000e+001 -3.000000e+000 9.000000e+000
      vertex   -4.500000e+001 -3.500000e+000 8.500000e+000
    endloop
  endfacet
  facet normal 0.000000e+000 -7.071068e-001 7.071068e-001
    outer loop
      vertex   -4.500000e+001 -3.500000e+000 8.500000e+000
      vertex   -4.250000e+001 -3.500000e+000 8.500000e+000
      vertex   -4.250000e+001 -3.000000e+000 9.000000e+000
    endloop
  endfacet
  facet normal 9.324933e-002 -7.040258e-001 7.040258e-001
    outer loop
      vertex   -4.250000e+001 -3.000000e+000 9.000000e+000
      vertex   -4.250000e+001 -3.500000e+000 8.500000e+000
      vertex   -4.236983e+001 -3.500000e+000 8.482759e+000
    endloop
  endfacet
  facet normal 6.580203e-001 -7.040258e-001 2.671274e-001
    outer loop
      vertex   -4.200000e+001 -3.483433e+000 8.129774e+000
      vertex   -4.200000e+001 -3.424725e+000 8.284501e+000
      vertex   -4.204206e+001 -3.500000e+000 8.189718e+000
    endloop
  endfacet
  facet normal 6.580203e-001 -7.040258e-001 2.671274e-001
    outer loop
      vertex   -4.200000e+001 -3.424725e+000 8.284501e+000
      vertex   -4.206543e+001 -3.500000e+000 8.247274e+000
      vertex   -4.204206e+001 -3.500000e+000 8.189718e+000
    endloop
  endfacet
  facet normal 5.657876e-001 -7.040258e-001 4.292227e-001
    outer loop
      vertex   -4.214478e+001 -3.500000e+000 8.351883e+000
      vertex   -4.206543e+001 -3.500000e+000 8.247274e+000
      vertex   -4.200000e+001 -3.424725e+000 8.284501e+000
    endloop
  endfacet
  facet normal 5.628141e-001 -7.215317e-001 4.032770e-001
    outer loop
      vertex   -4.200000e+001 -3.424725e+000 8.284501e+000
      vertex   -4.200000e+001 -3.364526e+000 8.392207e+000
      vertex   -4.214478e+001 -3.500000e+000 8.351883e+000
    endloop
  endfacet
  facet normal 4.345360e-001 -7.040258e-001 5.617172e-001
    outer loop
      vertex   -4.224864e+001 -3.500000e+000 8.432225e+000
      vertex   -4.214663e+001 -3.500000e+000 8.353313e+000
      vertex   -4.200000e+001 -3.296202e+000 8.495310e+000
    endloop
  endfacet
  facet normal 4.466701e-001 -7.124712e-001 5.411752e-001
    outer loop
      vertex   -4.200000e+001 -3.296202e+000 8.495310e+000
      vertex   -4.200000e+001 -3.155157e+000 8.680999e+000
      vertex   -4.224864e+001 -3.500000e+000 8.432225e+000
    endloop
  endfacet
  facet normal 4.345360e-001 -7.040258e-001 5.617172e-001
    outer loop
      vertex   -4.214663e+001 -3.500000e+000 8.353313e+000
      vertex   -4.214478e+001 -3.500000e+000 8.351883e+000
      vertex   -4.200000e+001 -3.296202e+000 8.495310e+000
    endloop
  endfacet
  facet normal 2.733172e-001 -7.040258e-001 6.554735e-001
    outer loop
      vertex   -4.231032e+001 -3.500000e+000 8.457946e+000
      vertex   -4.224864e+001 -3.500000e+000 8.432225e+000
      vertex   -4.200000e+001 -3.005407e+000 8.859776e+000
    endloop
  endfacet
  facet normal 2.733172e-001 -7.040258e-001 6.554735e-001
    outer loop
      vertex   -4.223966e+001 -3.000000e+000 8.965518e+000
      vertex   -4.236983e+001 -3.500000e+000 8.482759e+000
      vertex   -4.231032e+001 -3.500000e+000 8.457946e+000
    endloop
  endfacet
  facet normal 2.722317e-001 -7.041717e-001 6.557683e-001
    outer loop
      vertex   -4.231032e+001 -3.500000e+000 8.457946e+000
      vertex   -4.200000e+001 -3.000000e+000 8.866025e+000
      vertex   -4.223966e+001 -3.000000e+000 8.965518e+000
    endloop
  endfacet
  facet normal 3.370601e-001 -7.119710e-001 6.160258e-001
    outer loop
      vertex   -4.200000e+001 -3.005407e+000 8.859776e+000
      vertex   -4.200000e+001 -3.000000e+000 8.866025e+000
      vertex   -4.231032e+001 -3.500000e+000 8.457946e+000
    endloop
  endfacet
  facet normal 3.878051e-001 -7.066043e-001 5.918763e-001
    outer loop
      vertex   -4.200000e+001 -3.155157e+000 8.680999e+000
      vertex   -4.200000e+001 -3.005407e+000 8.859776e+000
      vertex   -4.224864e+001 -3.500000e+000 8.432225e+000
    endloop
  endfacet
  facet normal 5.306829e-001 -7.065164e-001 4.681988e-001
    outer loop
      vertex   -4.200000e+001 -3.364526e+000 8.392207e+000
      vertex   -4.200000e+001 -3.296202e+000 8.495310e+000
      vertex   -4.214478e+001 -3.500000e+000 8.351883e+000
    endloop
  endfacet
  facet normal 6.580203e-001 -7.040258e-001 2.671274e-001
    outer loop
      vertex   -4.204206e+001 -3.500000e+000 8.189718e+000
      vertex   -4.201604e+001 -3.500000e+000 8.125612e+000
      vertex   -4.200000e+001 -3.483433e+000 8.129774e+000
    endloop
  endfacet
  facet normal 7.042433e-001 -7.042433e-001 8.990334e-002
    outer loop
      vertex   -4.200000e+001 -3.483433e+000 8.129774e+000
      vertex   -4.201604e+001 -3.500000e+000 8.125612e+000
      vertex   -4.200000e+001 -3.500000e+000 8.000000e+000
    endloop
  endfacet
  facet normal 9.324933e-002 -7.040258e-001 7.040258e-001
    outer loop
      vertex   -4.236983e+001 -3.500000e+000 8.482759e+000
      vertex   -4.223966e+001 -3.000000e+000 8.965518e+000
      vertex   -4.250000e+001 -3.000000e+000 9.000000e+000
    endloop
  endfacet
  facet normal 1.000000e+000 0.000000e+000 0.000000e+000
    outer loop
      vertex   -4.200000e+001 -3.000000e+000 8.866025e+000
      vertex   -4.200000e+001 3.500000e+000 8.000000e+000
      vertex   -4.200000e+001 3.483433e+000 8.129774e+000
    endloop
  endfacet
  facet normal 1.000000e+000 0.000000e+000 0.000000e+000
    outer loop
      vertex   -4.200000e+001 3.500000e+000 8.000000e+000
      vertex   -4.200000e+001 -3.424725e+000 8.284501e+000
      vertex   -4.200000e+001 -3.483433e+000 8.129774e+000
    endloop
  endfacet
  facet normal 1.000000e+000 0.000000e+000 0.000000e+000
    outer loop
      vertex   -4.200000e+001 3.483433e+000 8.129774e+000
      vertex   -4.200000e+001 3.424725e+000 8.284501e+000
      vertex   -4.200000e+001 -3.000000e+000 8.866025e+000
    endloop
  endfacet
  facet normal 1.000000e+000 0.000000e+000 0.000000e+000
    outer loop
      vertex   -4.200000e+001 3.500000e+000 8.000000e+000
      vertex   -4.200000e+001 -3.364526e+000 8.392207e+000
      vertex   -4.200000e+001 -3.424725e+000 8.284501e+000
    endloop
  endfacet
  facet normal 1.000000e+000 0.000000e+000 0.000000e+000
    outer loop
      vertex   -4.200000e+001 3.424725e+000 8.284501e+000
      vertex   -4.200000e+001 3.364536e+000 8.392192e+000
      vertex   -4.200000e+001 -3.000000e+000 8.866025e+000
    endloop
  endfacet
  facet normal 1.000000e+000 0.000000e+000 0.000000e+000
    outer loop
      vertex   -4.200000e+001 3.500000e+000 8.000000e+000
      vertex   -4.200000e+001 -3.296202e+000 8.495310e+000
      vertex   -4.200000e+001 -3.364526e+000 8.392207e+000
    endloop
  endfacet
  facet normal 1.000000e+000 0.000000e+000 0.000000e+000
    outer loop
      vertex   -4.200000e+001 3.364536e+000 8.392192e+000
      vertex   -4.200000e+001 3.296202e+000 8.495310e+000
      vertex   -4.200000e+001 -3.000000e+000 8.866025e+000
    endloop
  endfacet
  facet normal 1.000000e+000 0.000000e+000 0.000000e+000
    outer loop
      vertex   -4.200000e+001 3.500000e+000 8.000000e+000
      vertex   -4.200000e+001 -3.155157e+000 8.680999e+000
      vertex   -4.200000e+001 -3.296202e+000 8.495310e+000
    endloop
  endfacet
  facet normal 1.000000e+000 0.000000e+000 0.000000e+000
    outer loop
      vertex   -4.200000e+001 3.296202e+000 8.495310e+000
      vertex   -4.200000e+001 3.155144e+000 8.681015e+000
      vertex   -4.200000e+001 -3.000000e+000 8.866025e+000
    endloop
  endfacet
  facet normal 1.000000e+000 0.000000e+000 0.000000e+000
    outer loop
      vertex   -4.200000e+001 3.500000e+000 8.000000e+000
      vertex   -4.200000e+001 -3.005407e+000 8.859776e+000
      vertex   -4.200000e+001 -3.155157e+000 8.680999e+000
    endloop
  endfacet
  facet normal 1.000000e+000 0.000000e+000 0.000000e+000
    outer loop
      vertex   -4.200000e+001 -3.000000e+000 1.300000e+001
      vertex   -4.200000e+001 -3.000000e+000 8.866025e+000
      vertex   -4.200000e+001 3.000000e+000 8.866025e+000
    endloop
  endfacet
  facet normal 1.000000e+000 0.000000e+000 0.000000e+000
    outer loop
      vertex   -4.200000e+001 3.155144e+000 8.681015e+000
      vertex   -4.200000e+001 3.004500e+000 8.860659e+000
      vertex   -4.200000e+001 -3.000000e+000 8.866025e+000
    endloop
  endfacet
  facet normal 1.000000e+000 0.000000e+000 0.000000e+000
    outer loop
      vertex   -4.200000e+001 3.500000e+000 8.000000e+000
      vertex   -4.200000e+001 -3.000000e+000 8.866025e+000
      vertex   -4.200000e+001 -3.005407e+000 8.859776e+000
    endloop
  endfacet
  facet normal 1.000000e+000 0.000000e+000 0.000000e+000
    outer loop
      vertex   -4.200000e+001 3.004500e+000 8.860659e+000
      vertex   -4.200000e+001 3.000000e+000 8.866025e+000
      vertex   -4.200000e+001 -3.000000e+000 8.866025e+000
    endloop
  endfacet
  facet normal 1.000000e+000 0.000000e+000 0.000000e+000
    outer loop
      vertex   -4.200000e+001 -1.700000e+001 0.000000e+000
      vertex   -4.200000e+001 3.500000e+000 8.000000e+000
      vertex   -4.200000e+001 -3.500000e+000 8.000000e+000
    endloop
  endfacet
  facet normal 1.000000e+000 0.000000e+000 -0.000000e+000
    outer loop
      vertex   -4.200000e+001 3.000000e+000 8.866025e+000
      vertex   -4.200000e+001 3.000000e+000 1.300000e+001
      vertex   -4.200000e+001 -3.000000e+000 1.300000e+001
    endloop
  endfacet
  facet normal 1.000000e+000 0.000000e+000 0.000000e+000
    outer loop
      vertex   -4.200000e+001 -3.483433e+000 8.129774e+000
      vertex   -4.200000e+001 -3.500000e+000 8.000000e+000
      vertex   -4.200000e+001 3.500000e+000 8.000000e+000
    endloop
  endfacet
  facet normal 1.000000e+000 0.000000e+000 -0.000000e+000
    outer loop
      vertex   -4.200000e+001 1.700000e+001 0.000000e+000
      vertex   -4.200000e+001 1.700000e+001 8.000000e+000
      vertex   -4.200000e+001 3.500000e+000 8.000000e+000
    endloop
  endfacet
  facet normal 1.000000e+000 0.000000e+000 0.000000e+000
    outer loop
      vertex   -4.200000e+001 3.500000e+000 8.000000e+000
      vertex   -4.200000e+001 -1.700000e+001 0.000000e+000
      vertex   -4.200000e+001 1.700000e+001 0.000000e+000
    endloop
  endfacet
  facet normal 1.000000e+000 0.000000e+000 0.000000e+000
    outer loop
      vertex   -4.200000e+001 -3.500000e+000 8.000000e+000
      vertex   -4.200000e+001 -1.700000e+001 8.000000e+000
      vertex   -4.200000e+001 -1.700000e+001 0.000000e+000
    endloop
  endfacet
  facet normal 1.313048e-001 0.000000e+000 9.913420e-001
    outer loop
      vertex   -4.236983e+001 -3.500000e+000 8.482759e+000
      vertex   -4.250000e+001 -3.500000e+000 8.500000e+000
      vertex   -4.250000e+001 -1.650000e+001 8.500000e+000
    endloop
  endfacet
  facet normal 3.848592e-001 -4.206571e-004 9.229752e-001
    outer loop
      vertex   -4.231032e+001 -3.500000e+000 8.457946e+000
      vertex   -4.236983e+001 -3.500000e+000 8.482759e+000
      vertex   -4.240245e+001 -1.659755e+001 8.490393e+000
    endloop
  endfacet
  facet normal 2.905836e-001 3.264169e-004 9.568496e-001
    outer loop
      vertex   -4.240245e+001 -1.659755e+001 8.490393e+000
      vertex   -4.230866e+001 -1.669134e+001 8.461940e+000
      vertex   -4.231032e+001 -3.500000e+000 8.457946e+000
    endloop
  endfacet
  facet normal 3.848592e-001 3.280630e-004 9.229752e-001
    outer loop
      vertex   -4.224864e+001 -3.500000e+000 8.432225e+000
      vertex   -4.231032e+001 -3.500000e+000 8.457946e+000
      vertex   -4.230866e+001 -1.669134e+001 8.461940e+000
    endloop
  endfacet
  facet normal 6.118722e-001 2.354441e-004 7.909566e-001
    outer loop
      vertex   -4.214663e+001 -3.500000e+000 8.353313e+000
      vertex   -4.224864e+001 -3.500000e+000 8.432225e+000
      vertex   -4.222221e+001 -1.677779e+001 8.415735e+000
    endloop
  endfacet
  facet normal 6.344069e-001 2.274667e-005 7.729993e-001
    outer loop
      vertex   -4.222221e+001 -1.677779e+001 8.415735e+000
      vertex   -4.214645e+001 -1.685355e+001 8.353553e+000
      vertex   -4.214663e+001 -3.500000e+000 8.353313e+000
    endloop
  endfacet
  facet normal 7.966882e-001 -2.358040e-005 6.043906e-001
    outer loop
      vertex   -4.206543e+001 -3.500000e+000 8.247274e+000
      vertex   -4.214478e+001 -3.500000e+000 8.351883e+000
      vertex   -4.214645e+001 -1.685355e+001 8.353553e+000
    endloop
  endfacet
  facet normal 7.731539e-001 3.566069e-004 6.342184e-001
    outer loop
      vertex   -4.214645e+001 -1.685355e+001 8.353553e+000
      vertex   -4.208427e+001 -1.691573e+001 8.277785e+000
      vertex   -4.206543e+001 -3.500000e+000 8.247274e+000
    endloop
  endfacet
  facet normal 9.265614e-001 -4.457550e-004 3.761434e-001
    outer loop
      vertex   -4.204206e+001 -3.500000e+000 8.189718e+000
      vertex   -4.206543e+001 -3.500000e+000 8.247274e+000
      vertex   -4.208427e+001 -1.691573e+001 8.277785e+000
    endloop
  endfacet
  facet normal 8.819921e-001 3.188748e-004 4.712641e-001
    outer loop
      vertex   -4.208427e+001 -1.691573e+001 8.277785e+000
      vertex   -4.203806e+001 -1.696194e+001 8.191342e+000
      vertex   -4.204206e+001 -3.500000e+000 8.189718e+000
    endloop
  endfacet
  facet normal 9.265614e-001 3.206439e-004 3.761434e-001
    outer loop
      vertex   -4.201604e+001 -3.500000e+000 8.125612e+000
      vertex   -4.204206e+001 -3.500000e+000 8.189718e+000
      vertex   -4.203806e+001 -1.696194e+001 8.191342e+000
    endloop
  endfacet
  facet normal 9.919498e-001 2.092082e-004 1.266318e-001
    outer loop
      vertex   -4.200000e+001 -3.500000e+000 8.000000e+000
      vertex   -4.201604e+001 -3.500000e+000 8.125612e+000
      vertex   -4.200961e+001 -1.699039e+001 8.097545e+000
    endloop
  endfacet
  facet normal 9.951847e-001 0.000000e+000 9.801714e-002
    outer loop
      vertex   -4.200961e+001 -1.699039e+001 8.097545e+000
      vertex   -4.200000e+001 -1.700000e+001 8.000000e+000
      vertex   -4.200000e+001 -3.500000e+000 8.000000e+000
    endloop
  endfacet
  facet normal 9.569278e-001 -1.480510e-004 2.903258e-001
    outer loop
      vertex   -4.203806e+001 -1.696194e+001 8.191342e+000
      vertex   -4.200961e+001 -1.699039e+001 8.097545e+000
      vertex   -4.201604e+001 -3.500000e+000 8.125612e+000
    endloop
  endfacet
  facet normal 6.118722e-001 2.275612e-005 7.909566e-001
    outer loop
      vertex   -4.214478e+001 -3.500000e+000 8.351883e+000
      vertex   -4.214663e+001 -3.500000e+000 8.353313e+000
      vertex   -4.214645e+001 -1.685355e+001 8.353553e+000
    endloop
  endfacet
  facet normal 4.712743e-001 -1.574347e-004 8.819867e-001
    outer loop
      vertex   -4.230866e+001 -1.669134e+001 8.461940e+000
      vertex   -4.222221e+001 -1.677779e+001 8.415735e+000
      vertex   -4.224864e+001 -3.500000e+000 8.432225e+000
    endloop
  endfacet
  facet normal 9.834895e-002 3.350375e-004 9.951519e-001
    outer loop
      vertex   -4.250000e+001 -1.650000e+001 8.500000e+000
      vertex   -4.240245e+001 -1.659755e+001 8.490393e+000
      vertex   -4.236983e+001 -3.500000e+000 8.482759e+000
    endloop
  endfacet
  facet normal 0.000000e+000 -1.000000e+000 0.000000e+000
    outer loop
      vertex   -6.000000e+001 -1.700000e+001 0.000000e+000
      vertex   -4.200000e+001 -1.700000e+001 0.000000e+000
      vertex   -4.200000e+001 -1.700000e+001 8.000000e+000
    endloop
  endfacet
  facet normal -0.000000e+000 -1.000000e+000 0.000000e+000
    outer loop
      vertex   -4.200000e+001 -1.700000e+001 8.000000e+000
      vertex   -6.000000e+001 -1.700000e+001 8.000000e+000
      vertex   -6.000000e+001 -1.700000e+001 0.000000e+000
    endloop
  endfacet
  facet normal -1.061265e-003 -9.570292e-001 2.899897e-001
    outer loop
      vertex   -6.000000e+001 -1.700000e+001 8.000000e+000
      vertex   -4.200961e+001 -1.699039e+001 8.097545e+000
      vertex   -4.203806e+001 -1.696194e+001 8.191342e+000
    endloop
  endfacet
  facet normal 0.000000e+000 -9.951847e-001 9.801714e-002
    outer loop
      vertex   -6.000000e+001 -1.700000e+001 8.000000e+000
      vertex   -4.200000e+001 -1.700000e+001 8.000000e+000
      vertex   -4.200961e+001 -1.699039e+001 8.097545e+000
    endloop
  endfacet
  facet normal -1.063719e-003 -7.734379e-001 6.338711e-001
    outer loop
      vertex   -6.000000e+001 -1.696194e+001 8.191342e+000
      vertex   -4.208427e+001 -1.691573e+001 8.277785e+000
      vertex   -4.214645e+001 -1.685355e+001 8.353553e+000
    endloop
  endfacet
  facet normal 0.000000e+000 -8.819213e-001 4.713967e-001
    outer loop
      vertex   -6.000000e+001 -1.696194e+001 8.191342e+000
      vertex   -4.203806e+001 -1.696194e+001 8.191342e+000
      vertex   -4.208427e+001 -1.691573e+001 8.277785e+000
    endloop
  endfacet
  facet normal -1.070517e-003 -4.722289e-001 8.814753e-001
    outer loop
      vertex   -6.000000e+001 -1.685355e+001 8.353553e+000
      vertex   -4.222221e+001 -1.677779e+001 8.415735e+000
      vertex   -4.230866e+001 -1.669134e+001 8.461940e+000
    endloop
  endfacet
  facet normal 0.000000e+000 -6.343933e-001 7.730105e-001
    outer loop
      vertex   -6.000000e+001 -1.685355e+001 8.353553e+000
      vertex   -4.214645e+001 -1.685355e+001 8.353553e+000
      vertex   -4.222221e+001 -1.677779e+001 8.415735e+000
    endloop
  endfacet
  facet normal -1.080763e-003 -9.908741e-002 9.950781e-001
    outer loop
      vertex   -6.000000e+001 -1.669134e+001 8.461940e+000
      vertex   -4.240245e+001 -1.659755e+001 8.490393e+000
      vertex   -4.250000e+001 -1.650000e+001 8.500000e+000
    endloop
  endfacet
  facet normal -9.383273e-017 -2.902847e-001 9.569403e-001
    outer loop
      vertex   -6.000000e+001 -1.669134e+001 8.461940e+000
      vertex   -4.230866e+001 -1.669134e+001 8.461940e+000
      vertex   -4.240245e+001 -1.659755e+001 8.490393e+000
    endloop
  endfacet
  facet normal 0.000000e+000 -1.950903e-001 9.807853e-001
    outer loop
      vertex   -4.250000e+001 -1.650000e+001 8.500000e+000
      vertex   -6.000000e+001 -1.650000e+001 8.500000e+000
      vertex   -6.000000e+001 -1.669134e+001 8.461940e+000
    endloop
  endfacet
  facet normal -8.152970e-017 -5.555702e-001 8.314696e-001
    outer loop
      vertex   -4.230866e+001 -1.669134e+001 8.461940e+000
      vertex   -6.000000e+001 -1.669134e+001 8.461940e+000
      vertex   -6.000000e+001 -1.685355e+001 8.353553e+000
    endloop
  endfacet
  facet normal 0.000000e+000 -8.314696e-001 5.555702e-001
    outer loop
      vertex   -4.214645e+001 -1.685355e+001 8.353553e+000
      vertex   -6.000000e+001 -1.685355e+001 8.353553e+000
      vertex   -6.000000e+001 -1.696194e+001 8.191342e+000
    endloop
  endfacet
  facet normal 0.000000e+000 -9.807853e-001 1.950903e-001
    outer loop
      vertex   -4.203806e+001 -1.696194e+001 8.191342e+000
      vertex   -6.000000e+001 -1.696194e+001 8.191342e+000
      vertex   -6.000000e+001 -1.700000e+001 8.000000e+000
    endloop
  endfacet
  facet normal -1.000000e+000 0.000000e+000 0.000000e+000
    outer loop
      vertex   -6.000000e+001 -1.650000e+001 8.500000e+000
      vertex   -6.000000e+001 -1.700000e+001 8.000000e+000
      vertex   -6.000000e+001 -1.696194e+001 8.191342e+000
    endloop
  endfacet
  facet normal -1.000000e+000 0.000000e+000 0.000000e+000
    outer loop
      vertex   -6.000000e+001 -1.696194e+001 8.191342e+000
      vertex   -6.000000e+001 -1.685355e+001 8.353553e+000
      vertex   -6.000000e+001 -1.650000e+001 8.500000e+000
    endloop
  endfacet
  facet normal -1.000000e+000 0.000000e+000 0.000000e+000
    outer loop
      vertex   -6.000000e+001 -1.685355e+001 8.353553e+000
      vertex   -6.000000e+001 -1.669134e+001 8.461940e+000
      vertex   -6.000000e+001 -1.650000e+001 8.500000e+000
    endloop
  endfacet
  facet normal -1.000000e+000 0.000000e+000 0.000000e+000
    outer loop
      vertex   -6.000000e+001 -1.550000e+001 0.000000e+000
      vertex   -6.000000e+001 -1.700000e+001 0.000000e+000
      vertex   -6.000000e+001 -1.700000e+001 8.000000e+000
    endloop
  endfacet
  facet normal -1.000000e+000 0.000000e+000 0.000000e+000
    outer loop
      vertex   -6.000000e+001 -1.700000e+001 8.000000e+000
      vertex   -6.000000e+001 -1.550000e+001 8.500000e+000
      vertex   -6.000000e+001 -1.550000e+001 0.000000e+000
    endloop
  endfacet
  facet normal -1.000000e+000 0.000000e+000 -0.000000e+000
    outer loop
      vertex   -6.000000e+001 -1.650000e+001 8.500000e+000
      vertex   -6.000000e+001 -1.550000e+001 8.500000e+000
      vertex   -6.000000e+001 -1.700000e+001 8.000000e+000
    endloop
  endfacet
  facet normal 0.000000e+000 1.000000e+000 0.000000e+000
    outer loop
      vertex   -5.700000e+001 -1.550000e+001 8.500000e+000
      vertex   -5.700000e+001 -1.550000e+001 0.000000e+000
      vertex   -6.000000e+001 -1.550000e+001 0.000000e+000
    endloop
  endfacet
  facet normal 0.000000e+000 1.000000e+000 0.000000e+000
    outer loop
      vertex   -6.000000e+001 -1.550000e+001 0.000000e+000
      vertex   -6.000000e+001 -1.550000e+001 8.500000e+000
      vertex   -5.700000e+001 -1.550000e+001 8.500000e+000
    endloop
  endfacet
  facet normal 0.000000e+000 0.000000e+000 1.000000e+000
    outer loop
      vertex   -6.000000e+001 -1.650000e+001 8.500000e+000
      vertex   -4.250000e+001 -1.650000e+001 8.500000e+000
      vertex   -5.700000e+001 -1.550000e+001 8.500000e+000
    endloop
  endfacet
  facet normal -0.000000e+000 0.000000e+000 1.000000e+000
    outer loop
      vertex   -5.700000e+001 -1.550000e+001 8.500000e+000
      vertex   -4.250000e+001 -1.650000e+001 8.500000e+000
      vertex   -4.500000e+001 -1.450000e+001 8.500000e+000
    endloop
  endfacet
  facet normal 0.000000e+000 0.000000e+000 1.000000e+000
    outer loop
      vertex   -4.500000e+001 -1.450000e+001 8.500000e+000
      vertex   -5.700000e+001 -1.450000e+001 8.500000e+000
      vertex   -5.700000e+001 -1.550000e+001 8.500000e+000
    endloop
  endfacet
  facet normal 0.000000e+000 0.000000e+000 1.000000e+000
    outer loop
      vertex   -4.250000e+001 -3.500000e+000 8.500000e+000
      vertex   -4.500000e+001 -3.500000e+000 8.500000e+000
      vertex   -4.500000e+001 -1.450000e+001 8.500000e+000
    endloop
  endfacet
  facet normal -0.000000e+000 0.000000e+000 1.000000e+000
    outer loop
      vertex   -4.500000e+001 -1.450000e+001 8.500000e+000
      vertex   -4.250000e+001 -1.650000e+001 8.500000e+000
      vertex   -4.250000e+001 -3.500000e+000 8.500000e+000
    endloop
  endfacet
  facet normal 0.000000e+000 0.000000e+000 1.000000e+000
    outer loop
      vertex   -5.700000e+001 -1.550000e+001 8.500000e+000
      vertex   -6.000000e+001 -1.550000e+001 8.500000e+000
      vertex   -6.000000e+001 -1.650000e+001 8.500000e+000
    endloop
  endfacet
  facet normal -1.000000e+000 0.000000e+000 0.000000e+000
    outer loop
      vertex   -5.700000e+001 -1.430866e+001 8.461940e+000
      vertex   -5.700000e+001 -1.414645e+001 8.353553e+000
      vertex   -5.700000e+001 -1.403806e+001 8.191342e+000
    endloop
  endfacet
  facet normal -1.000000e+000 0.000000e+000 0.000000e+000
    outer loop
      vertex   -5.700000e+001 -1.550000e+001 0.000000e+000
      vertex   -5.700000e+001 -1.450000e+001 8.500000e+000
      vertex   -5.700000e+001 -1.400000e+001 8.000000e+000
    endloop
  endfacet
  facet normal -1.000000e+000 0.000000e+000 0.000000e+000
    outer loop
      vertex   -5.700000e+001 -1.400000e+001 8.000000e+000
      vertex   -5.700000e+001 -1.450000e+001 8.500000e+000
      vertex   -5.700000e+001 -1.430866e+001 8.461940e+000
    endloop
  endfacet
  facet normal -1.000000e+000 -0.000000e+000 -0.000000e+000
    outer loop
      vertex   -5.700000e+001 -1.403806e+001 8.191342e+000
      vertex   -5.700000e+001 -1.400000e+001 8.000000e+000
      vertex   -5.700000e+001 -1.430866e+001 8.461940e+000
    endloop
  endfacet
  facet normal -1.000000e+000 0.000000e+000 0.000000e+000
    outer loop
      vertex   -5.700000e+001 -1.550000e+001 0.000000e+000
      vertex   -5.700000e+001 -1.550000e+001 8.500000e+000
      vertex   -5.700000e+001 -1.450000e+001 8.500000e+000
    endloop
  endfacet
  facet normal -1.000000e+000 0.000000e+000 -0.000000e+000
    outer loop
      vertex   -5.700000e+001 -1.400000e+001 8.000000e+000
      vertex   -5.700000e+001 -1.400000e+001 0.000000e+000
      vertex   -5.700000e+001 -1.550000e+001 0.000000e+000
    endloop
  endfacet
  facet normal -1.417826e-016 9.807853e-001 1.950903e-001
    outer loop
      vertex   -4.500000e+001 -1.400000e+001 8.000000e+000
      vertex   -5.700000e+001 -1.400000e+001 8.000000e+000
      vertex   -5.700000e+001 -1.403806e+001 8.191342e+000
    endloop
  endfacet
  facet normal 0.000000e+000 8.314696e-001 5.555702e-001
    outer loop
      vertex   -4.500000e+001 -1.403806e+001 8.191342e+000
      vertex   -5.700000e+001 -1.403806e+001 8.191342e+000
      vertex   -5.700000e+001 -1.414645e+001 8.353553e+000
    endloop
  endfacet
  facet normal 0.000000e+000 5.555702e-001 8.314696e-001
    outer loop
      vertex   -4.500000e+001 -1.414645e+001 8.353553e+000
      vertex   -5.700000e+001 -1.414645e+001 8.353553e+000
      vertex   -5.700000e+001 -1.430866e+001 8.461940e+000
    endloop
  endfacet
  facet normal 0.000000e+000 1.950903e-001 9.807853e-001
    outer loop
      vertex   -4.500000e+001 -1.430866e+001 8.461940e+000
      vertex   -5.700000e+001 -1.430866e+001 8.461940e+000
      vertex   -5.700000e+001 -1.450000e+001 8.500000e+000
    endloop
  endfacet
  facet normal -2.820231e-017 1.950903e-001 9.807853e-001
    outer loop
      vertex   -5.700000e+001 -1.450000e+001 8.500000e+000
      vertex   -4.500000e+001 -1.450000e+001 8.500000e+000
      vertex   -4.500000e+001 -1.430866e+001 8.461940e+000
    endloop
  endfacet
  facet normal -0.000000e+000 5.555702e-001 8.314696e-001
    outer loop
      vertex   -5.700000e+001 -1.430866e+001 8.461940e+000
      vertex   -4.500000e+001 -1.430866e+001 8.461940e+000
      vertex   -4.500000e+001 -1.414645e+001 8.353553e+000
    endloop
  endfacet
  facet normal -0.000000e+000 8.314696e-001 5.555702e-001
    outer loop
      vertex   -5.700000e+001 -1.414645e+001 8.353553e+000
      vertex   -4.500000e+001 -1.414645e+001 8.353553e+000
      vertex   -4.500000e+001 -1.403806e+001 8.191342e+000
    endloop
  endfacet
  facet normal -0.000000e+000 9.807853e-001 1.950903e-001
    outer loop
      vertex   -5.700000e+001 -1.403806e+001 8.191342e+000
      vertex   -4.500000e+001 -1.403806e+001 8.191342e+000
      vertex   -4.500000e+001 -1.400000e+001 8.000000e+000
    endloop
  endfacet
  facet normal -1.000000e+000 0.000000e+000 0.000000e+000
    outer loop
      vertex   -4.500000e+001 3.000000e+000 1.300000e+001
      vertex   -4.500000e+001 2.707107e+000 1.370711e+001
      vertex   -4.500000e+001 2.866025e+000 1.350000e+001
    endloop
  endfacet
  facet normal -1.000000e+000 0.000000e+000 0.000000e+000
    outer loop
      vertex   -4.500000e+001 3.000000e+000 1.300000e+001
      vertex   -4.500000e+001 2.258819e+000 1.396593e+001
      vertex   -4.500000e+001 2.500000e+000 1.386603e+001
    endloop
  endfacet
  facet normal -1.000000e+000 0.000000e+000 0.000000e+000
    outer loop
      vertex   -4.500000e+001 2.500000e+000 1.386603e+001
      vertex   -4.500000e+001 2.707107e+000 1.370711e+001
      vertex   -4.500000e+001 3.000000e+000 1.300000e+001
    endloop
  endfacet
  facet normal -1.000000e+000 0.000000e+000 0.000000e+000
    outer loop
      vertex   -4.500000e+001 -2.500000e+000 1.386603e+001
      vertex   -4.500000e+001 -3.000000e+000 1.300000e+001
      vertex   -4.500000e+001 -2.965926e+000 1.325882e+001
    endloop
  endfacet
  facet normal -1.000000e+000 0.000000e+000 0.000000e+000
    outer loop
      vertex   -4.500000e+001 1.400000e+001 4.000000e+000
      vertex   -4.500000e+001 -3.500000e+000 8.500000e+000
      vertex   -4.500000e+001 3.500000e+000 8.500000e+000
    endloop
  endfacet
  facet normal -1.000000e+000 0.000000e+000 0.000000e+000
    outer loop
      vertex   -4.500000e+001 3.000000e+000 1.300000e+001
      vertex   -4.500000e+001 2.000000e+000 1.400000e+001
      vertex   -4.500000e+001 2.258819e+000 1.396593e+001
    endloop
  endfacet
  facet normal -1.000000e+000 0.000000e+000 0.000000e+000
    outer loop
      vertex   -4.500000e+001 -3.000000e+000 1.300000e+001
      vertex   -4.500000e+001 -2.500000e+000 1.386603e+001
      vertex   -4.500000e+001 -2.258819e+000 1.396593e+001
    endloop
  endfacet
  facet normal -1.000000e+000 0.000000e+000 0.000000e+000
    outer loop
      vertex   -4.500000e+001 -2.965926e+000 1.325882e+001
      vertex   -4.500000e+001 -2.866025e+000 1.350000e+001
      vertex   -4.500000e+001 -2.500000e+000 1.386603e+001
    endloop
  endfacet
  facet normal -1.000000e+000 0.000000e+000 0.000000e+000
    outer loop
      vertex   -4.500000e+001 3.500000e+000 8.500000e+000
      vertex   -4.500000e+001 1.403806e+001 8.191342e+000
      vertex   -4.500000e+001 1.400000e+001 8.000000e+000
    endloop
  endfacet
  facet normal -1.000000e+000 0.000000e+000 0.000000e+000
    outer loop
      vertex   -4.500000e+001 -3.000000e+000 9.000000e+000
      vertex   -4.500000e+001 -2.000000e+000 1.400000e+001
      vertex   -4.500000e+001 3.000000e+000 1.300000e+001
    endloop
  endfacet
  facet normal -1.000000e+000 0.000000e+000 0.000000e+000
    outer loop
      vertex   -4.500000e+001 3.000000e+000 1.300000e+001
      vertex   -4.500000e+001 -2.000000e+000 1.400000e+001
      vertex   -4.500000e+001 2.000000e+000 1.400000e+001
    endloop
  endfacet
  facet normal -1.000000e+000 0.000000e+000 0.000000e+000
    outer loop
      vertex   -4.500000e+001 -2.866025e+000 1.350000e+001
      vertex   -4.500000e+001 -2.707107e+000 1.370711e+001
      vertex   -4.500000e+001 -2.500000e+000 1.386603e+001
    endloop
  endfacet
  facet normal -1.000000e+000 0.000000e+000 0.000000e+000
    outer loop
      vertex   -4.500000e+001 3.500000e+000 8.500000e+000
      vertex   -4.500000e+001 1.414645e+001 8.353553e+000
      vertex   -4.500000e+001 1.403806e+001 8.191342e+000
    endloop
  endfacet
  facet normal -1.000000e+000 0.000000e+000 0.000000e+000
    outer loop
      vertex   -4.500000e+001 3.500000e+000 8.500000e+000
      vertex   -4.500000e+001 1.450000e+001 8.500000e+000
      vertex   -4.500000e+001 1.430866e+001 8.461940e+000
    endloop
  endfacet
  facet normal -1.000000e+000 0.000000e+000 0.000000e+000
    outer loop
      vertex   -4.500000e+001 2.866025e+000 1.350000e+001
      vertex   -4.500000e+001 2.965926e+000 1.325882e+001
      vertex   -4.500000e+001 3.000000e+000 1.300000e+001
    endloop
  endfacet
  facet normal -1.000000e+000 0.000000e+000 0.000000e+000
    outer loop
      vertex   -4.500000e+001 -2.000000e+000 1.400000e+001
      vertex   -4.500000e+001 -3.000000e+000 9.000000e+000
      vertex   -4.500000e+001 -3.000000e+000 1.300000e+001
    endloop
  endfacet
  facet normal -1.000000e+000 0.000000e+000 0.000000e+000
    outer loop
      vertex   -4.500000e+001 -1.400000e+001 4.000000e+000
      vertex   -4.500000e+001 -1.400000e+001 8.000000e+000
      vertex   -4.500000e+001 -3.500000e+000 8.500000e+000
    endloop
  endfacet
  facet normal -1.000000e+000 -0.000000e+000 0.000000e+000
    outer loop
      vertex   -4.500000e+001 1.430866e+001 8.461940e+000
      vertex   -4.500000e+001 1.414645e+001 8.353553e+000
      vertex   -4.500000e+001 3.500000e+000 8.500000e+000
    endloop
  endfacet
  facet normal -1.000000e+000 0.000000e+000 0.000000e+000
    outer loop
      vertex   -4.500000e+001 3.500000e+000 8.500000e+000
      vertex   -4.500000e+001 1.400000e+001 8.000000e+000
      vertex   -4.500000e+001 1.400000e+001 4.000000e+000
    endloop
  endfacet
  facet normal -1.000000e+000 0.000000e+000 -0.000000e+000
    outer loop
      vertex   -4.500000e+001 -2.258819e+000 1.396593e+001
      vertex   -4.500000e+001 -2.000000e+000 1.400000e+001
      vertex   -4.500000e+001 -3.000000e+000 1.300000e+001
    endloop
  endfacet
  facet normal -1.000000e+000 0.000000e+000 -0.000000e+000
    outer loop
      vertex   -4.500000e+001 -3.500000e+000 8.500000e+000
      vertex   -4.500000e+001 1.400000e+001 4.000000e+000
      vertex   -4.500000e+001 -1.400000e+001 4.000000e+000
    endloop
  endfacet
  facet normal -1.000000e+000 0.000000e+000 0.000000e+000
    outer loop
      vertex   -4.500000e+001 -3.500000e+000 8.500000e+000
      vertex   -4.500000e+001 3.000000e+000 9.000000e+000
      vertex   -4.500000e+001 3.500000e+000 8.500000e+000
    endloop
  endfacet
  facet normal -1.000000e+000 -0.000000e+000 0.000000e+000
    outer loop
      vertex   -4.500000e+001 3.000000e+000 9.000000e+000
      vertex   -4.500000e+001 -3.500000e+000 8.500000e+000
      vertex   -4.500000e+001 -3.000000e+000 9.000000e+000
    endloop
  endfacet
  facet normal -1.000000e+000 0.000000e+000 0.000000e+000
    outer loop
      vertex   -4.500000e+001 -3.500000e+000 8.500000e+000
      vertex   -4.500000e+001 -1.414645e+001 8.353553e+000
      vertex   -4.500000e+001 -1.430866e+001 8.461940e+000
    endloop
  endfacet
  facet normal -1.000000e+000 0.000000e+000 0.000000e+000
    outer loop
      vertex   -4.500000e+001 -1.400000e+001 8.000000e+000
      vertex   -4.500000e+001 -1.403806e+001 8.191342e+000
      vertex   -4.500000e+001 -3.500000e+000 8.500000e+000
    endloop
  endfacet
  facet normal -1.000000e+000 0.000000e+000 -0.000000e+000
    outer loop
      vertex   -4.500000e+001 3.000000e+000 1.300000e+001
      vertex   -4.500000e+001 3.000000e+000 9.000000e+000
      vertex   -4.500000e+001 -3.000000e+000 9.000000e+000
    endloop
  endfacet
  facet normal -1.000000e+000 0.000000e+000 0.000000e+000
    outer loop
      vertex   -4.500000e+001 -1.403806e+001 8.191342e+000
      vertex   -4.500000e+001 -1.414645e+001 8.353553e+000
      vertex   -4.500000e+001 -3.500000e+000 8.500000e+000
    endloop
  endfacet
  facet normal -1.000000e+000 0.000000e+000 0.000000e+000
    outer loop
      vertex   -4.500000e+001 -1.430866e+001 8.461940e+000
      vertex   -4.500000e+001 -1.450000e+001 8.500000e+000
      vertex   -4.500000e+001 -3.500000e+000 8.500000e+000
    endloop
  endfacet
  facet normal 0.000000e+000 0.000000e+000 -1.000000e+000
    outer loop
      vertex   -5.700000e+001 1.700000e+001 0.000000e+000
      vertex   -4.200000e+001 1.700000e+001 0.000000e+000
      vertex   -5.000000e+001 1.400000e+001 0.000000e+000
    endloop
  endfacet
  facet normal 0.000000e+000 0.000000e+000 -1.000000e+000
    outer loop
      vertex   -6.000000e+001 1.400000e+001 0.000000e+000
      vertex   -6.000000e+001 1.550000e+001 0.000000e+000
      vertex   -5.700000e+001 1.550000e+001 0.000000e+000
    endloop
  endfacet
  facet normal 0.000000e+000 -0.000000e+000 -1.000000e+000
    outer loop
      vertex   -5.700000e+001 1.550000e+001 0.000000e+000
      vertex   -5.000000e+001 1.400000e+001 0.000000e+000
      vertex   -6.000000e+001 1.400000e+001 0.000000e+000
    endloop
  endfacet
  facet normal 0.000000e+000 -0.000000e+000 -1.000000e+000
    outer loop
      vertex   -4.200000e+001 1.700000e+001 0.000000e+000
      vertex   -4.200000e+001 -1.700000e+001 0.000000e+000
      vertex   -5.000000e+001 -1.400000e+001 0.000000e+000
    endloop
  endfacet
  facet normal 0.000000e+000 0.000000e+000 -1.000000e+000
    outer loop
      vertex   -5.000000e+001 -1.400000e+001 0.000000e+000
      vertex   -5.000000e+001 1.400000e+001 0.000000e+000
      vertex   -4.200000e+001 1.700000e+001 0.000000e+000
    endloop
  endfacet
  facet normal 0.000000e+000 0.000000e+000 -1.000000e+000
    outer loop
      vertex   -5.700000e+001 -1.550000e+001 0.000000e+000
      vertex   -5.700000e+001 -1.400000e+001 0.000000e+000
      vertex   -5.000000e+001 -1.400000e+001 0.000000e+000
    endloop
  endfacet
  facet normal 0.000000e+000 -0.000000e+000 -1.000000e+000
    outer loop
      vertex   -5.000000e+001 -1.400000e+001 0.000000e+000
      vertex   -4.200000e+001 -1.700000e+001 0.000000e+000
      vertex   -5.700000e+001 -1.550000e+001 0.000000e+000
    endloop
  endfacet
  facet normal 0.000000e+000 0.000000e+000 -1.000000e+000
    outer loop
      vertex   -6.000000e+001 -1.700000e+001 0.000000e+000
      vertex   -6.000000e+001 -1.550000e+001 0.000000e+000
      vertex   -5.700000e+001 -1.550000e+001 0.000000e+000
    endloop
  endfacet
  facet normal 0.000000e+000 -0.000000e+000 -1.000000e+000
    outer loop
      vertex   -5.700000e+001 -1.550000e+001 0.000000e+000
      vertex   -4.200000e+001 -1.700000e+001 0.000000e+000
      vertex   -6.000000e+001 -1.700000e+001 0.000000e+000
    endloop
  endfacet
  facet normal 0.000000e+000 0.000000e+000 -1.000000e+000
    outer loop
      vertex   -5.000000e+001 1.400000e+001 0.000000e+000
      vertex   -5.700000e+001 1.550000e+001 0.000000e+000
      vertex   -5.700000e+001 1.700000e+001 0.000000e+000
    endloop
  endfacet
  facet normal 0.000000e+000 -1.000000e+000 0.000000e+000
    outer loop
      vertex   -4.500000e+001 1.400000e+001 8.000000e+000
      vertex   -5.000000e+001 1.400000e+001 2.000000e+000
      vertex   -4.700000e+001 1.400000e+001 2.000000e+000
    endloop
  endfacet
  facet normal -0.000000e+000 -1.000000e+000 0.000000e+000
    outer loop
      vertex   -4.500000e+001 1.400000e+001 8.000000e+000
      vertex   -6.000000e+001 1.400000e+001 8.000000e+000
      vertex   -5.000000e+001 1.400000e+001 2.000000e+000
    endloop
  endfacet
  facet normal 0.000000e+000 -1.000000e+000 0.000000e+000
    outer loop
      vertex   -6.000000e+001 1.400000e+001 0.000000e+000
      vertex   -5.000000e+001 1.400000e+001 0.000000e+000
      vertex   -5.000000e+001 1.400000e+001 2.000000e+000
    endloop
  endfacet
  facet normal -0.000000e+000 -1.000000e+000 0.000000e+000
    outer loop
      vertex   -5.000000e+001 1.400000e+001 2.000000e+000
      vertex   -6.000000e+001 1.400000e+001 8.000000e+000
      vertex   -6.000000e+001 1.400000e+001 0.000000e+000
    endloop
  endfacet
  facet normal 0.000000e+000 -1.000000e+000 0.000000e+000
    outer loop
      vertex   -4.700000e+001 1.400000e+001 2.000000e+000
      vertex   -4.500000e+001 1.400000e+001 4.000000e+000
      vertex   -4.500000e+001 1.400000e+001 8.000000e+000
    endloop
  endfacet
  facet normal -8.673617e-016 1.000000e+000 0.000000e+000
    outer loop
      vertex   -4.500000e+001 -1.400000e+001 8.000000e+000
      vertex   -4.500000e+001 -1.400000e+001 4.000000e+000
      vertex   -4.700000e+001 -1.400000e+001 2.000000e+000
    endloop
  endfacet
  facet normal 0.000000e+000 1.000000e+000 0.000000e+000
    outer loop
      vertex   -5.700000e+001 -1.400000e+001 0.000000e+000
      vertex   -5.700000e+001 -1.400000e+001 8.000000e+000
      vertex   -5.000000e+001 -1.400000e+001 2.000000e+000
    endloop
  endfacet
  facet normal 0.000000e+000 1.000000e+000 -2.891206e-016
    outer loop
      vertex   -4.700000e+001 -1.400000e+001 2.000000e+000
      vertex   -5.000000e+001 -1.400000e+001 2.000000e+000
      vertex   -4.500000e+001 -1.400000e+001 8.000000e+000
    endloop
  endfacet
  facet normal -1.445603e-016 1.000000e+000 -1.686537e-016
    outer loop
      vertex   -5.000000e+001 -1.400000e+001 2.000000e+000
      vertex   -5.700000e+001 -1.400000e+001 8.000000e+000
      vertex   -4.500000e+001 -1.400000e+001 8.000000e+000
    endloop
  endfacet
  facet normal 0.000000e+000 1.000000e+000 0.000000e+000
    outer loop
      vertex   -5.000000e+001 -1.400000e+001 2.000000e+000
      vertex   -5.000000e+001 -1.400000e+001 0.000000e+000
      vertex   -5.700000e+001 -1.400000e+001 0.000000e+000
    endloop
  endfacet
  facet normal -1.000000e+000 0.000000e+000 -0.000000e+000
    outer loop
      vertex   -5.000000e+001 1.400000e+001 2.000000e+000
      vertex   -5.000000e+001 1.400000e+001 0.000000e+000
      vertex   -5.000000e+001 -1.400000e+001 0.000000e+000
    endloop
  endfacet
  facet normal -1.000000e+000 0.000000e+000 0.000000e+000
    outer loop
      vertex   -5.000000e+001 -1.400000e+001 0.000000e+000
      vertex   -5.000000e+001 -1.400000e+001 2.000000e+000
      vertex   -5.000000e+001 1.400000e+001 2.000000e+000
    endloop
  endfacet
  facet normal 0.000000e+000 0.000000e+000 1.000000e+000
    outer loop
      vertex   -5.000000e+001 1.400000e+001 2.000000e+000
      vertex   -5.000000e+001 -1.400000e+001 2.000000e+000
      vertex   -4.700000e+001 -1.400000e+001 2.000000e+000
    endloop
  endfacet
  facet normal 0.000000e+000 -0.000000e+000 1.000000e+000
    outer loop
      vertex   -4.700000e+001 -1.400000e+001 2.000000e+000
      vertex   -4.700000e+001 1.400000e+001 2.000000e+000
      vertex   -5.000000e+001 1.400000e+001 2.000000e+000
    endloop
  endfacet
  facet normal -7.071068e-001 0.000000e+000 7.071068e-001
    outer loop
      vertex   -4.700000e+001 1.400000e+001 2.000000e+000
      vertex   -4.700000e+001 -1.400000e+001 2.000000e+000
      vertex   -4.500000e+001 -1.400000e+001 4.000000e+000
    endloop
  endfacet
  facet normal -7.071068e-001 0.000000e+000 7.071068e-001
    outer loop
      vertex   -4.500000e+001 -1.400000e+001 4.000000e+000
      vertex   -4.500000e+001 1.400000e+001 4.000000e+000
      vertex   -4.700000e+001 1.400000e+001 2.000000e+000
    endloop
  endfacet
endsolid
