solid ascii
  facet normal 9.927089e-001 1.205367e-001 0.000000e+000
    outer loop
      vertex   -1.262224e+000 -3.111104e-001 0.000000e+000
      vertex   -1.300000e+000 -3.184082e-016 0.000000e+000
      vertex   -1.300000e+000 -3.184082e-016 8.000000e-001
    endloop
  endfacet
  facet normal 9.350162e-001 3.546049e-001 0.000000e+000
    outer loop
      vertex   -1.151093e+000 -6.041401e-001 0.000000e+000
      vertex   -1.262224e+000 -3.111104e-001 0.000000e+000
      vertex   -1.262224e+000 -3.111104e-001 8.000000e-001
    endloop
  endfacet
  facet normal 8.229839e-001 5.680647e-001 0.000000e+000
    outer loop
      vertex   -9.730640e-001 -8.620595e-001 0.000000e+000
      vertex   -1.151093e+000 -6.041401e-001 0.000000e+000
      vertex   -1.151093e+000 -6.041401e-001 8.000000e-001
    endloop
  endfacet
  facet normal 6.631227e-001 7.485107e-001 0.000000e+000
    outer loop
      vertex   -7.384842e-001 -1.069879e+000 0.000000e+000
      vertex   -9.730640e-001 -8.620595e-001 0.000000e+000
      vertex   -9.730640e-001 -8.620595e-001 8.000000e-001
    endloop
  endfacet
  facet normal 4.647232e-001 8.854560e-001 0.000000e+000
    outer loop
      vertex   -4.609864e-001 -1.215521e+000 0.000000e+000
      vertex   -7.384842e-001 -1.069879e+000 0.000000e+000
      vertex   -7.384842e-001 -1.069879e+000 8.000000e-001
    endloop
  endfacet
  facet normal 2.393157e-001 9.709418e-001 0.000000e+000
    outer loop
      vertex   -1.566977e-001 -1.290522e+000 0.000000e+000
      vertex   -4.609864e-001 -1.215521e+000 0.000000e+000
      vertex   -4.609864e-001 -1.215521e+000 8.000000e-001
    endloop
  endfacet
  facet normal -6.919070e-016 1.000000e+000 0.000000e+000
    outer loop
      vertex   1.566977e-001 -1.290522e+000 0.000000e+000
      vertex   -1.566977e-001 -1.290522e+000 0.000000e+000
      vertex   -1.566977e-001 -1.290522e+000 8.000000e-001
    endloop
  endfacet
  facet normal -2.393157e-001 9.709418e-001 0.000000e+000
    outer loop
      vertex   4.609864e-001 -1.215521e+000 0.000000e+000
      vertex   1.566977e-001 -1.290522e+000 0.000000e+000
      vertex   1.566977e-001 -1.290522e+000 8.000000e-001
    endloop
  endfacet
  facet normal -4.647232e-001 8.854560e-001 0.000000e+000
    outer loop
      vertex   7.384842e-001 -1.069879e+000 0.000000e+000
      vertex   4.609864e-001 -1.215521e+000 0.000000e+000
      vertex   4.609864e-001 -1.215521e+000 8.000000e-001
    endloop
  endfacet
  facet normal -6.631227e-001 7.485107e-001 0.000000e+000
    outer loop
      vertex   9.730640e-001 -8.620595e-001 0.000000e+000
      vertex   7.384842e-001 -1.069879e+000 0.000000e+000
      vertex   7.384842e-001 -1.069879e+000 8.000000e-001
    endloop
  endfacet
  facet normal -8.229839e-001 5.680647e-001 0.000000e+000
    outer loop
      vertex   1.151093e+000 -6.041401e-001 0.000000e+000
      vertex   9.730640e-001 -8.620595e-001 0.000000e+000
      vertex   9.730640e-001 -8.620595e-001 8.000000e-001
    endloop
  endfacet
  facet normal -9.350162e-001 3.546049e-001 0.000000e+000
    outer loop
      vertex   1.262224e+000 -3.111104e-001 0.000000e+000
      vertex   1.151093e+000 -6.041401e-001 0.000000e+000
      vertex   1.151093e+000 -6.041401e-001 8.000000e-001
    endloop
  endfacet
  facet normal -9.927089e-001 1.205367e-001 0.000000e+000
    outer loop
      vertex   1.300000e+000 4.776123e-016 0.000000e+000
      vertex   1.262224e+000 -3.111104e-001 0.000000e+000
      vertex   1.262224e+000 -3.111104e-001 8.000000e-001
    endloop
  endfacet
  facet normal -9.927089e-001 -1.205367e-001 -5.278831e-017
    outer loop
      vertex   1.262224e+000 3.111104e-001 0.000000e+000
      vertex   1.300000e+000 4.776123e-016 0.000000e+000
      vertex   1.300000e+000 1.592041e-016 8.000000e-001
    endloop
  endfacet
  facet normal -9.350162e-001 -3.546049e-001 0.000000e+000
    outer loop
      vertex   1.151093e+000 6.041401e-001 0.000000e+000
      vertex   1.262224e+000 3.111104e-001 0.000000e+000
      vertex   1.262224e+000 3.111104e-001 8.000000e-001
    endloop
  endfacet
  facet normal -8.229839e-001 -5.680647e-001 0.000000e+000
    outer loop
      vertex   9.730640e-001 8.620595e-001 0.000000e+000
      vertex   1.151093e+000 6.041401e-001 0.000000e+000
      vertex   1.151093e+000 6.041401e-001 8.000000e-001
    endloop
  endfacet
  facet normal -6.631227e-001 -7.485107e-001 0.000000e+000
    outer loop
      vertex   7.384842e-001 1.069879e+000 0.000000e+000
      vertex   9.730640e-001 8.620595e-001 0.000000e+000
      vertex   9.730640e-001 8.620595e-001 8.000000e-001
    endloop
  endfacet
  facet normal -4.647232e-001 -8.854560e-001 0.000000e+000
    outer loop
      vertex   4.609864e-001 1.215521e+000 0.000000e+000
      vertex   7.384842e-001 1.069879e+000 0.000000e+000
      vertex   7.384842e-001 1.069879e+000 8.000000e-001
    endloop
  endfacet
  facet normal -2.393157e-001 -9.709418e-001 0.000000e+000
    outer loop
      vertex   1.566977e-001 1.290522e+000 0.000000e+000
      vertex   4.609864e-001 1.215521e+000 0.000000e+000
      vertex   4.609864e-001 1.215521e+000 8.000000e-001
    endloop
  endfacet
  facet normal 0.000000e+000 -1.000000e+000 0.000000e+000
    outer loop
      vertex   -1.566977e-001 1.290522e+000 0.000000e+000
      vertex   1.566977e-001 1.290522e+000 0.000000e+000
      vertex   1.566977e-001 1.290522e+000 8.000000e-001
    endloop
  endfacet
  facet normal 2.393157e-001 -9.709418e-001 0.000000e+000
    outer loop
      vertex   -4.609864e-001 1.215521e+000 0.000000e+000
      vertex   -1.566977e-001 1.290522e+000 0.000000e+000
      vertex   -1.566977e-001 1.290522e+000 8.000000e-001
    endloop
  endfacet
  facet normal 4.647232e-001 -8.854560e-001 0.000000e+000
    outer loop
      vertex   -7.384842e-001 1.069879e+000 0.000000e+000
      vertex   -4.609864e-001 1.215521e+000 0.000000e+000
      vertex   -4.609864e-001 1.215521e+000 8.000000e-001
    endloop
  endfacet
  facet normal 6.631227e-001 -7.485107e-001 0.000000e+000
    outer loop
      vertex   -9.730640e-001 8.620595e-001 0.000000e+000
      vertex   -7.384842e-001 1.069879e+000 0.000000e+000
      vertex   -7.384842e-001 1.069879e+000 8.000000e-001
    endloop
  endfacet
  facet normal 8.229839e-001 -5.680647e-001 0.000000e+000
    outer loop
      vertex   -1.151093e+000 6.041401e-001 0.000000e+000
      vertex   -9.730640e-001 8.620595e-001 0.000000e+000
      vertex   -9.730640e-001 8.620595e-001 8.000000e-001
    endloop
  endfacet
  facet normal 9.350162e-001 -3.546049e-001 0.000000e+000
    outer loop
      vertex   -1.262224e+000 3.111104e-001 0.000000e+000
      vertex   -1.151093e+000 6.041401e-001 0.000000e+000
      vertex   -1.151093e+000 6.041401e-001 8.000000e-001
    endloop
  endfacet
  facet normal 9.927089e-001 -1.205367e-001 0.000000e+000
    outer loop
      vertex   -1.300000e+000 -3.184082e-016 0.000000e+000
      vertex   -1.262224e+000 3.111104e-001 0.000000e+000
      vertex   -1.262224e+000 3.111104e-001 8.000000e-001
    endloop
  endfacet
  facet normal 9.927089e-001 -1.205367e-001 0.000000e+000
    outer loop
      vertex   -1.262224e+000 3.111104e-001 8.000000e-001
      vertex   -1.300000e+000 -3.184082e-016 8.000000e-001
      vertex   -1.300000e+000 -3.184082e-016 0.000000e+000
    endloop
  endfacet
  facet normal 9.350162e-001 -3.546049e-001 0.000000e+000
    outer loop
      vertex   -1.151093e+000 6.041401e-001 8.000000e-001
      vertex   -1.262224e+000 3.111104e-001 8.000000e-001
      vertex   -1.262224e+000 3.111104e-001 0.000000e+000
    endloop
  endfacet
  facet normal 8.229839e-001 -5.680647e-001 0.000000e+000
    outer loop
      vertex   -9.730640e-001 8.620595e-001 8.000000e-001
      vertex   -1.151093e+000 6.041401e-001 8.000000e-001
      vertex   -1.151093e+000 6.041401e-001 0.000000e+000
    endloop
  endfacet
  facet normal 6.631227e-001 -7.485107e-001 0.000000e+000
    outer loop
      vertex   -7.384842e-001 1.069879e+000 8.000000e-001
      vertex   -9.730640e-001 8.620595e-001 8.000000e-001
      vertex   -9.730640e-001 8.620595e-001 0.000000e+000
    endloop
  endfacet
  facet normal 4.647232e-001 -8.854560e-001 0.000000e+000
    outer loop
      vertex   -4.609864e-001 1.215521e+000 8.000000e-001
      vertex   -7.384842e-001 1.069879e+000 8.000000e-001
      vertex   -7.384842e-001 1.069879e+000 0.000000e+000
    endloop
  endfacet
  facet normal 2.393157e-001 -9.709418e-001 0.000000e+000
    outer loop
      vertex   -1.566977e-001 1.290522e+000 8.000000e-001
      vertex   -4.609864e-001 1.215521e+000 8.000000e-001
      vertex   -4.609864e-001 1.215521e+000 0.000000e+000
    endloop
  endfacet
  facet normal -0.000000e+000 -1.000000e+000 0.000000e+000
    outer loop
      vertex   1.566977e-001 1.290522e+000 8.000000e-001
      vertex   -1.566977e-001 1.290522e+000 8.000000e-001
      vertex   -1.566977e-001 1.290522e+000 0.000000e+000
    endloop
  endfacet
  facet normal -2.393157e-001 -9.709418e-001 0.000000e+000
    outer loop
      vertex   4.609864e-001 1.215521e+000 8.000000e-001
      vertex   1.566977e-001 1.290522e+000 8.000000e-001
      vertex   1.566977e-001 1.290522e+000 0.000000e+000
    endloop
  endfacet
  facet normal -4.647232e-001 -8.854560e-001 0.000000e+000
    outer loop
      vertex   7.384842e-001 1.069879e+000 8.000000e-001
      vertex   4.609864e-001 1.215521e+000 8.000000e-001
      vertex   4.609864e-001 1.215521e+000 0.000000e+000
    endloop
  endfacet
  facet normal -6.631227e-001 -7.485107e-001 0.000000e+000
    outer loop
      vertex   9.730640e-001 8.620595e-001 8.000000e-001
      vertex   7.384842e-001 1.069879e+000 8.000000e-001
      vertex   7.384842e-001 1.069879e+000 0.000000e+000
    endloop
  endfacet
  facet normal -8.229839e-001 -5.680647e-001 0.000000e+000
    outer loop
      vertex   1.151093e+000 6.041401e-001 8.000000e-001
      vertex   9.730640e-001 8.620595e-001 8.000000e-001
      vertex   9.730640e-001 8.620595e-001 0.000000e+000
    endloop
  endfacet
  facet normal -9.350162e-001 -3.546049e-001 0.000000e+000
    outer loop
      vertex   1.262224e+000 3.111104e-001 8.000000e-001
      vertex   1.151093e+000 6.041401e-001 8.000000e-001
      vertex   1.151093e+000 6.041401e-001 0.000000e+000
    endloop
  endfacet
  facet normal -9.927089e-001 -1.205367e-001 0.000000e+000
    outer loop
      vertex   1.300000e+000 1.592041e-016 8.000000e-001
      vertex   1.262224e+000 3.111104e-001 8.000000e-001
      vertex   1.262224e+000 3.111104e-001 0.000000e+000
    endloop
  endfacet
  facet normal -9.927089e-001 1.205367e-001 4.618977e-017
    outer loop
      vertex   1.262224e+000 -3.111104e-001 8.000000e-001
      vertex   1.300000e+000 1.592041e-016 8.000000e-001
      vertex   1.300000e+000 4.776123e-016 0.000000e+000
    endloop
  endfacet
  facet normal -9.350162e-001 3.546049e-001 0.000000e+000
    outer loop
      vertex   1.151093e+000 -6.041401e-001 8.000000e-001
      vertex   1.262224e+000 -3.111104e-001 8.000000e-001
      vertex   1.262224e+000 -3.111104e-001 0.000000e+000
    endloop
  endfacet
  facet normal -8.229839e-001 5.680647e-001 0.000000e+000
    outer loop
      vertex   9.730640e-001 -8.620595e-001 8.000000e-001
      vertex   1.151093e+000 -6.041401e-001 8.000000e-001
      vertex   1.151093e+000 -6.041401e-001 0.000000e+000
    endloop
  endfacet
  facet normal -6.631227e-001 7.485107e-001 0.000000e+000
    outer loop
      vertex   7.384842e-001 -1.069879e+000 8.000000e-001
      vertex   9.730640e-001 -8.620595e-001 8.000000e-001
      vertex   9.730640e-001 -8.620595e-001 0.000000e+000
    endloop
  endfacet
  facet normal -4.647232e-001 8.854560e-001 0.000000e+000
    outer loop
      vertex   4.609864e-001 -1.215521e+000 8.000000e-001
      vertex   7.384842e-001 -1.069879e+000 8.000000e-001
      vertex   7.384842e-001 -1.069879e+000 0.000000e+000
    endloop
  endfacet
  facet normal -2.393157e-001 9.709418e-001 0.000000e+000
    outer loop
      vertex   1.566977e-001 -1.290522e+000 8.000000e-001
      vertex   4.609864e-001 -1.215521e+000 8.000000e-001
      vertex   4.609864e-001 -1.215521e+000 0.000000e+000
    endloop
  endfacet
  facet normal -6.919070e-016 1.000000e+000 0.000000e+000
    outer loop
      vertex   -1.566977e-001 -1.290522e+000 8.000000e-001
      vertex   1.566977e-001 -1.290522e+000 8.000000e-001
      vertex   1.566977e-001 -1.290522e+000 0.000000e+000
    endloop
  endfacet
  facet normal 2.393157e-001 9.709418e-001 0.000000e+000
    outer loop
      vertex   -4.609864e-001 -1.215521e+000 8.000000e-001
      vertex   -1.566977e-001 -1.290522e+000 8.000000e-001
      vertex   -1.566977e-001 -1.290522e+000 0.000000e+000
    endloop
  endfacet
  facet normal 4.647232e-001 8.854560e-001 0.000000e+000
    outer loop
      vertex   -7.384842e-001 -1.069879e+000 8.000000e-001
      vertex   -4.609864e-001 -1.215521e+000 8.000000e-001
      vertex   -4.609864e-001 -1.215521e+000 0.000000e+000
    endloop
  endfacet
  facet normal 6.631227e-001 7.485107e-001 0.000000e+000
    outer loop
      vertex   -9.730640e-001 -8.620595e-001 8.000000e-001
      vertex   -7.384842e-001 -1.069879e+000 8.000000e-001
      vertex   -7.384842e-001 -1.069879e+000 0.000000e+000
    endloop
  endfacet
  facet normal 8.229839e-001 5.680647e-001 0.000000e+000
    outer loop
      vertex   -1.151093e+000 -6.041401e-001 8.000000e-001
      vertex   -9.730640e-001 -8.620595e-001 8.000000e-001
      vertex   -9.730640e-001 -8.620595e-001 0.000000e+000
    endloop
  endfacet
  facet normal 9.350162e-001 3.546049e-001 0.000000e+000
    outer loop
      vertex   -1.262224e+000 -3.111104e-001 8.000000e-001
      vertex   -1.151093e+000 -6.041401e-001 8.000000e-001
      vertex   -1.151093e+000 -6.041401e-001 0.000000e+000
    endloop
  endfacet
  facet normal 9.927089e-001 1.205367e-001 0.000000e+000
    outer loop
      vertex   -1.300000e+000 -3.184082e-016 8.000000e-001
      vertex   -1.262224e+000 -3.111104e-001 8.000000e-001
      vertex   -1.262224e+000 -3.111104e-001 0.000000e+000
    endloop
  endfacet
  facet normal 0.000000e+000 0.000000e+000 1.000000e+000
    outer loop
      vertex   2.648288e+000 9.091585e-001 8.000000e-001
      vertex   2.462527e+000 1.332653e+000 8.000000e-001
      vertex   1.151093e+000 6.041401e-001 8.000000e-001
    endloop
  endfacet
  facet normal 0.000000e+000 0.000000e+000 1.000000e+000
    outer loop
      vertex   2.761812e+000 4.608649e-001 8.000000e-001
      vertex   1.262224e+000 3.111104e-001 8.000000e-001
      vertex   1.300000e+000 1.592041e-016 8.000000e-001
    endloop
  endfacet
  facet normal 0.000000e+000 0.000000e+000 1.000000e+000
    outer loop
      vertex   1.262224e+000 3.111104e-001 8.000000e-001
      vertex   2.761812e+000 4.608649e-001 8.000000e-001
      vertex   2.648288e+000 9.091585e-001 8.000000e-001
    endloop
  endfacet
  facet normal 0.000000e+000 0.000000e+000 1.000000e+000
    outer loop
      vertex   1.896388e+000 2.060027e+000 8.000000e-001
      vertex   1.531455e+000 2.344066e+000 8.000000e-001
      vertex   7.384842e-001 1.069879e+000 8.000000e-001
    endloop
  endfacet
  facet normal 0.000000e+000 0.000000e+000 1.000000e+000
    outer loop
      vertex   6.873594e-001 2.714321e+000 8.000000e-001
      vertex   2.312222e-001 2.790437e+000 8.000000e-001
      vertex   1.566977e-001 1.290522e+000 8.000000e-001
    endloop
  endfacet
  facet normal -0.000000e+000 0.000000e+000 1.000000e+000
    outer loop
      vertex   -1.896388e+000 -2.060027e+000 8.000000e-001
      vertex   -1.531455e+000 -2.344066e+000 8.000000e-001
      vertex   -7.384842e-001 -1.069879e+000 8.000000e-001
    endloop
  endfacet
  facet normal -0.000000e+000 0.000000e+000 1.000000e+000
    outer loop
      vertex   1.151093e+000 6.041401e-001 8.000000e-001
      vertex   1.262224e+000 3.111104e-001 8.000000e-001
      vertex   2.648288e+000 9.091585e-001 8.000000e-001
    endloop
  endfacet
  facet normal 0.000000e+000 0.000000e+000 1.000000e+000
    outer loop
      vertex   2.209593e+000 1.719796e+000 8.000000e-001
      vertex   9.730640e-001 8.620595e-001 8.000000e-001
      vertex   1.151093e+000 6.041401e-001 8.000000e-001
    endloop
  endfacet
  facet normal 0.000000e+000 0.000000e+000 1.000000e+000
    outer loop
      vertex   9.730640e-001 8.620595e-001 8.000000e-001
      vertex   2.209593e+000 1.719796e+000 8.000000e-001
      vertex   1.896388e+000 2.060027e+000 8.000000e-001
    endloop
  endfacet
  facet normal 0.000000e+000 0.000000e+000 1.000000e+000
    outer loop
      vertex   1.124747e+000 2.564165e+000 8.000000e-001
      vertex   4.609864e-001 1.215521e+000 8.000000e-001
      vertex   7.384842e-001 1.069879e+000 8.000000e-001
    endloop
  endfacet
  facet normal 0.000000e+000 0.000000e+000 1.000000e+000
    outer loop
      vertex   4.609864e-001 1.215521e+000 8.000000e-001
      vertex   1.124747e+000 2.564165e+000 8.000000e-001
      vertex   6.873594e-001 2.714321e+000 8.000000e-001
    endloop
  endfacet
  facet normal 0.000000e+000 0.000000e+000 1.000000e+000
    outer loop
      vertex   -2.312222e-001 2.790437e+000 8.000000e-001
      vertex   -1.566977e-001 1.290522e+000 8.000000e-001
      vertex   1.566977e-001 1.290522e+000 8.000000e-001
    endloop
  endfacet
  facet normal 0.000000e+000 0.000000e+000 1.000000e+000
    outer loop
      vertex   -6.873594e-001 2.714321e+000 8.000000e-001
      vertex   -4.609864e-001 1.215521e+000 8.000000e-001
      vertex   -1.566977e-001 1.290522e+000 8.000000e-001
    endloop
  endfacet
  facet normal 0.000000e+000 0.000000e+000 1.000000e+000
    outer loop
      vertex   -9.730640e-001 -8.620595e-001 8.000000e-001
      vertex   -2.209593e+000 -1.719796e+000 8.000000e-001
      vertex   -1.896388e+000 -2.060027e+000 8.000000e-001
    endloop
  endfacet
  facet normal 0.000000e+000 0.000000e+000 1.000000e+000
    outer loop
      vertex   -1.124747e+000 -2.564165e+000 8.000000e-001
      vertex   -4.609864e-001 -1.215521e+000 8.000000e-001
      vertex   -7.384842e-001 -1.069879e+000 8.000000e-001
    endloop
  endfacet
  facet normal -0.000000e+000 0.000000e+000 1.000000e+000
    outer loop
      vertex   -6.873594e-001 -2.714321e+000 8.000000e-001
      vertex   -2.312222e-001 -2.790437e+000 8.000000e-001
      vertex   -1.566977e-001 -1.290522e+000 8.000000e-001
    endloop
  endfacet
  facet normal 0.000000e+000 0.000000e+000 1.000000e+000
    outer loop
      vertex   1.151093e+000 6.041401e-001 8.000000e-001
      vertex   2.462527e+000 1.332653e+000 8.000000e-001
      vertex   2.209593e+000 1.719796e+000 8.000000e-001
    endloop
  endfacet
  facet normal 0.000000e+000 0.000000e+000 1.000000e+000
    outer loop
      vertex   7.384842e-001 1.069879e+000 8.000000e-001
      vertex   1.531455e+000 2.344066e+000 8.000000e-001
      vertex   1.124747e+000 2.564165e+000 8.000000e-001
    endloop
  endfacet
  facet normal 0.000000e+000 -0.000000e+000 1.000000e+000
    outer loop
      vertex   1.566977e-001 1.290522e+000 8.000000e-001
      vertex   2.312222e-001 2.790437e+000 8.000000e-001
      vertex   -2.312222e-001 2.790437e+000 8.000000e-001
    endloop
  endfacet
  facet normal 0.000000e+000 0.000000e+000 1.000000e+000
    outer loop
      vertex   -1.566977e-001 1.290522e+000 8.000000e-001
      vertex   -2.312222e-001 2.790437e+000 8.000000e-001
      vertex   -6.873594e-001 2.714321e+000 8.000000e-001
    endloop
  endfacet
  facet normal 0.000000e+000 0.000000e+000 1.000000e+000
    outer loop
      vertex   -1.896388e+000 2.060027e+000 8.000000e-001
      vertex   -9.730640e-001 8.620595e-001 8.000000e-001
      vertex   -7.384842e-001 1.069879e+000 8.000000e-001
    endloop
  endfacet
  facet normal 0.000000e+000 0.000000e+000 1.000000e+000
    outer loop
      vertex   -7.384842e-001 -1.069879e+000 8.000000e-001
      vertex   -1.531455e+000 -2.344066e+000 8.000000e-001
      vertex   -1.124747e+000 -2.564165e+000 8.000000e-001
    endloop
  endfacet
  facet normal 0.000000e+000 0.000000e+000 1.000000e+000
    outer loop
      vertex   -4.609864e-001 -1.215521e+000 8.000000e-001
      vertex   -1.124747e+000 -2.564165e+000 8.000000e-001
      vertex   -6.873594e-001 -2.714321e+000 8.000000e-001
    endloop
  endfacet
  facet normal -0.000000e+000 0.000000e+000 1.000000e+000
    outer loop
      vertex   7.384842e-001 1.069879e+000 8.000000e-001
      vertex   9.730640e-001 8.620595e-001 8.000000e-001
      vertex   1.896388e+000 2.060027e+000 8.000000e-001
    endloop
  endfacet
  facet normal 0.000000e+000 0.000000e+000 1.000000e+000
    outer loop
      vertex   -6.873594e-001 2.714321e+000 8.000000e-001
      vertex   -1.124747e+000 2.564165e+000 8.000000e-001
      vertex   -4.609864e-001 1.215521e+000 8.000000e-001
    endloop
  endfacet
  facet normal 0.000000e+000 0.000000e+000 1.000000e+000
    outer loop
      vertex   -7.384842e-001 1.069879e+000 8.000000e-001
      vertex   -1.531455e+000 2.344066e+000 8.000000e-001
      vertex   -1.896388e+000 2.060027e+000 8.000000e-001
    endloop
  endfacet
  facet normal 0.000000e+000 0.000000e+000 1.000000e+000
    outer loop
      vertex   -2.209593e+000 1.719796e+000 8.000000e-001
      vertex   -2.462527e+000 1.332653e+000 8.000000e-001
      vertex   -1.151093e+000 6.041401e-001 8.000000e-001
    endloop
  endfacet
  facet normal 0.000000e+000 0.000000e+000 1.000000e+000
    outer loop
      vertex   -2.648288e+000 9.091585e-001 8.000000e-001
      vertex   -1.262224e+000 3.111104e-001 8.000000e-001
      vertex   -1.151093e+000 6.041401e-001 8.000000e-001
    endloop
  endfacet
  facet normal 0.000000e+000 0.000000e+000 1.000000e+000
    outer loop
      vertex   -1.566977e-001 -1.290522e+000 8.000000e-001
      vertex   -4.609864e-001 -1.215521e+000 8.000000e-001
      vertex   -6.873594e-001 -2.714321e+000 8.000000e-001
    endloop
  endfacet
  facet normal 0.000000e+000 0.000000e+000 1.000000e+000
    outer loop
      vertex   2.312222e-001 -2.790437e+000 8.000000e-001
      vertex   1.566977e-001 -1.290522e+000 8.000000e-001
      vertex   -1.566977e-001 -1.290522e+000 8.000000e-001
    endloop
  endfacet
  facet normal 0.000000e+000 0.000000e+000 1.000000e+000
    outer loop
      vertex   6.873594e-001 -2.714321e+000 8.000000e-001
      vertex   4.609864e-001 -1.215521e+000 8.000000e-001
      vertex   1.566977e-001 -1.290522e+000 8.000000e-001
    endloop
  endfacet
  facet normal 0.000000e+000 0.000000e+000 1.000000e+000
    outer loop
      vertex   1.896388e+000 -2.060027e+000 8.000000e-001
      vertex   9.730640e-001 -8.620595e-001 8.000000e-001
      vertex   7.384842e-001 -1.069879e+000 8.000000e-001
    endloop
  endfacet
  facet normal -0.000000e+000 0.000000e+000 1.000000e+000
    outer loop
      vertex   1.566977e-001 1.290522e+000 8.000000e-001
      vertex   4.609864e-001 1.215521e+000 8.000000e-001
      vertex   6.873594e-001 2.714321e+000 8.000000e-001
    endloop
  endfacet
  facet normal 0.000000e+000 0.000000e+000 1.000000e+000
    outer loop
      vertex   -1.124747e+000 2.564165e+000 8.000000e-001
      vertex   -1.531455e+000 2.344066e+000 8.000000e-001
      vertex   -7.384842e-001 1.069879e+000 8.000000e-001
    endloop
  endfacet
  facet normal 0.000000e+000 -0.000000e+000 1.000000e+000
    outer loop
      vertex   -1.151093e+000 6.041401e-001 8.000000e-001
      vertex   -9.730640e-001 8.620595e-001 8.000000e-001
      vertex   -2.209593e+000 1.719796e+000 8.000000e-001
    endloop
  endfacet
  facet normal 0.000000e+000 0.000000e+000 1.000000e+000
    outer loop
      vertex   -1.151093e+000 6.041401e-001 8.000000e-001
      vertex   -2.462527e+000 1.332653e+000 8.000000e-001
      vertex   -2.648288e+000 9.091585e-001 8.000000e-001
    endloop
  endfacet
  facet normal -0.000000e+000 0.000000e+000 1.000000e+000
    outer loop
      vertex   -2.648288e+000 -9.091585e-001 8.000000e-001
      vertex   -2.462527e+000 -1.332653e+000 8.000000e-001
      vertex   -1.151093e+000 -6.041401e-001 8.000000e-001
    endloop
  endfacet
  facet normal 0.000000e+000 0.000000e+000 1.000000e+000
    outer loop
      vertex   -1.566977e-001 -1.290522e+000 8.000000e-001
      vertex   -2.312222e-001 -2.790437e+000 8.000000e-001
      vertex   2.312222e-001 -2.790437e+000 8.000000e-001
    endloop
  endfacet
  facet normal 0.000000e+000 0.000000e+000 1.000000e+000
    outer loop
      vertex   1.566977e-001 -1.290522e+000 8.000000e-001
      vertex   2.312222e-001 -2.790437e+000 8.000000e-001
      vertex   6.873594e-001 -2.714321e+000 8.000000e-001
    endloop
  endfacet
  facet normal 0.000000e+000 -0.000000e+000 1.000000e+000
    outer loop
      vertex   1.124747e+000 -2.564165e+000 8.000000e-001
      vertex   1.531455e+000 -2.344066e+000 8.000000e-001
      vertex   7.384842e-001 -1.069879e+000 8.000000e-001
    endloop
  endfacet
  facet normal 0.000000e+000 0.000000e+000 1.000000e+000
    outer loop
      vertex   7.384842e-001 -1.069879e+000 8.000000e-001
      vertex   1.531455e+000 -2.344066e+000 8.000000e-001
      vertex   1.896388e+000 -2.060027e+000 8.000000e-001
    endloop
  endfacet
  facet normal 0.000000e+000 -0.000000e+000 1.000000e+000
    outer loop
      vertex   -7.384842e-001 1.069879e+000 8.000000e-001
      vertex   -4.609864e-001 1.215521e+000 8.000000e-001
      vertex   -1.124747e+000 2.564165e+000 8.000000e-001
    endloop
  endfacet
  facet normal 0.000000e+000 0.000000e+000 1.000000e+000
    outer loop
      vertex   -2.648288e+000 9.091585e-001 8.000000e-001
      vertex   -2.761812e+000 4.608649e-001 8.000000e-001
      vertex   -1.262224e+000 3.111104e-001 8.000000e-001
    endloop
  endfacet
  facet normal 0.000000e+000 0.000000e+000 1.000000e+000
    outer loop
      vertex   -1.262224e+000 -3.111104e-001 8.000000e-001
      vertex   -2.761812e+000 -4.608649e-001 8.000000e-001
      vertex   -2.648288e+000 -9.091585e-001 8.000000e-001
    endloop
  endfacet
  facet normal 0.000000e+000 0.000000e+000 1.000000e+000
    outer loop
      vertex   -2.209593e+000 -1.719796e+000 8.000000e-001
      vertex   -9.730640e-001 -8.620595e-001 8.000000e-001
      vertex   -1.151093e+000 -6.041401e-001 8.000000e-001
    endloop
  endfacet
  facet normal 0.000000e+000 -0.000000e+000 1.000000e+000
    outer loop
      vertex   6.873594e-001 -2.714321e+000 8.000000e-001
      vertex   1.124747e+000 -2.564165e+000 8.000000e-001
      vertex   4.609864e-001 -1.215521e+000 8.000000e-001
    endloop
  endfacet
  facet normal 0.000000e+000 -0.000000e+000 1.000000e+000
    outer loop
      vertex   1.896388e+000 -2.060027e+000 8.000000e-001
      vertex   2.209593e+000 -1.719796e+000 8.000000e-001
      vertex   9.730640e-001 -8.620595e-001 8.000000e-001
    endloop
  endfacet
  facet normal 0.000000e+000 0.000000e+000 1.000000e+000
    outer loop
      vertex   2.648288e+000 -9.091585e-001 8.000000e-001
      vertex   1.262224e+000 -3.111104e-001 8.000000e-001
      vertex   1.151093e+000 -6.041401e-001 8.000000e-001
    endloop
  endfacet
  facet normal 0.000000e+000 0.000000e+000 1.000000e+000
    outer loop
      vertex   -1.896388e+000 2.060027e+000 8.000000e-001
      vertex   -2.209593e+000 1.719796e+000 8.000000e-001
      vertex   -9.730640e-001 8.620595e-001 8.000000e-001
    endloop
  endfacet
  facet normal 0.000000e+000 0.000000e+000 1.000000e+000
    outer loop
      vertex   -2.761812e+000 4.608649e-001 8.000000e-001
      vertex   -2.800000e+000 -6.858022e-016 8.000000e-001
      vertex   -1.300000e+000 -3.184082e-016 8.000000e-001
    endloop
  endfacet
  facet normal 0.000000e+000 0.000000e+000 1.000000e+000
    outer loop
      vertex   -2.761812e+000 -4.608649e-001 8.000000e-001
      vertex   -1.262224e+000 -3.111104e-001 8.000000e-001
      vertex   -1.300000e+000 -3.184082e-016 8.000000e-001
    endloop
  endfacet
  facet normal 0.000000e+000 0.000000e+000 1.000000e+000
    outer loop
      vertex   -1.151093e+000 -6.041401e-001 8.000000e-001
      vertex   -2.462527e+000 -1.332653e+000 8.000000e-001
      vertex   -2.209593e+000 -1.719796e+000 8.000000e-001
    endloop
  endfacet
  facet normal 0.000000e+000 0.000000e+000 1.000000e+000
    outer loop
      vertex   7.384842e-001 -1.069879e+000 8.000000e-001
      vertex   4.609864e-001 -1.215521e+000 8.000000e-001
      vertex   1.124747e+000 -2.564165e+000 8.000000e-001
    endloop
  endfacet
  facet normal 0.000000e+000 -0.000000e+000 1.000000e+000
    outer loop
      vertex   2.209593e+000 -1.719796e+000 8.000000e-001
      vertex   2.462527e+000 -1.332653e+000 8.000000e-001
      vertex   1.151093e+000 -6.041401e-001 8.000000e-001
    endloop
  endfacet
  facet normal 0.000000e+000 0.000000e+000 1.000000e+000
    outer loop
      vertex   1.151093e+000 -6.041401e-001 8.000000e-001
      vertex   2.462527e+000 -1.332653e+000 8.000000e-001
      vertex   2.648288e+000 -9.091585e-001 8.000000e-001
    endloop
  endfacet
  facet normal 0.000000e+000 -0.000000e+000 1.000000e+000
    outer loop
      vertex   2.761812e+000 -4.608649e-001 8.000000e-001
      vertex   2.800000e+000 1.028703e-015 8.000000e-001
      vertex   1.300000e+000 1.592041e-016 8.000000e-001
    endloop
  endfacet
  facet normal 0.000000e+000 -0.000000e+000 1.000000e+000
    outer loop
      vertex   -1.300000e+000 -3.184082e-016 8.000000e-001
      vertex   -1.262224e+000 3.111104e-001 8.000000e-001
      vertex   -2.761812e+000 4.608649e-001 8.000000e-001
    endloop
  endfacet
  facet normal 0.000000e+000 0.000000e+000 1.000000e+000
    outer loop
      vertex   -1.151093e+000 -6.041401e-001 8.000000e-001
      vertex   -1.262224e+000 -3.111104e-001 8.000000e-001
      vertex   -2.648288e+000 -9.091585e-001 8.000000e-001
    endloop
  endfacet
  facet normal 0.000000e+000 0.000000e+000 1.000000e+000
    outer loop
      vertex   1.151093e+000 -6.041401e-001 8.000000e-001
      vertex   9.730640e-001 -8.620595e-001 8.000000e-001
      vertex   2.209593e+000 -1.719796e+000 8.000000e-001
    endloop
  endfacet
  facet normal 0.000000e+000 0.000000e+000 1.000000e+000
    outer loop
      vertex   1.300000e+000 1.592041e-016 8.000000e-001
      vertex   1.262224e+000 -3.111104e-001 8.000000e-001
      vertex   2.761812e+000 -4.608649e-001 8.000000e-001
    endloop
  endfacet
  facet normal 0.000000e+000 0.000000e+000 1.000000e+000
    outer loop
      vertex   -1.300000e+000 -3.184082e-016 8.000000e-001
      vertex   -2.800000e+000 -6.858022e-016 8.000000e-001
      vertex   -2.761812e+000 -4.608649e-001 8.000000e-001
    endloop
  endfacet
  facet normal 0.000000e+000 -0.000000e+000 1.000000e+000
    outer loop
      vertex   2.648288e+000 -9.091585e-001 8.000000e-001
      vertex   2.761812e+000 -4.608649e-001 8.000000e-001
      vertex   1.262224e+000 -3.111104e-001 8.000000e-001
    endloop
  endfacet
  facet normal 0.000000e+000 0.000000e+000 1.000000e+000
    outer loop
      vertex   -7.384842e-001 -1.069879e+000 8.000000e-001
      vertex   -9.730640e-001 -8.620595e-001 8.000000e-001
      vertex   -1.896388e+000 -2.060027e+000 8.000000e-001
    endloop
  endfacet
  facet normal 0.000000e+000 0.000000e+000 1.000000e+000
    outer loop
      vertex   1.300000e+000 1.592041e-016 8.000000e-001
      vertex   2.800000e+000 1.028703e-015 8.000000e-001
      vertex   2.761812e+000 4.608649e-001 8.000000e-001
    endloop
  endfacet
  facet normal -9.965845e-001 8.257935e-002 0.000000e+000
    outer loop
      vertex   -2.800000e+000 -6.858022e-016 0.000000e+000
      vertex   -2.800000e+000 -6.858022e-016 8.000000e-001
      vertex   -2.761812e+000 4.608649e-001 8.000000e-001
    endloop
  endfacet
  facet normal -9.694003e-001 2.454855e-001 0.000000e+000
    outer loop
      vertex   -2.761812e+000 4.608649e-001 0.000000e+000
      vertex   -2.761812e+000 4.608649e-001 8.000000e-001
      vertex   -2.648288e+000 9.091585e-001 8.000000e-001
    endloop
  endfacet
  facet normal -9.157733e-001 4.016954e-001 0.000000e+000
    outer loop
      vertex   -2.648288e+000 9.091585e-001 0.000000e+000
      vertex   -2.648288e+000 9.091585e-001 8.000000e-001
      vertex   -2.462527e+000 1.332653e+000 8.000000e-001
    endloop
  endfacet
  facet normal -8.371665e-001 5.469482e-001 0.000000e+000
    outer loop
      vertex   -2.462527e+000 1.332653e+000 0.000000e+000
      vertex   -2.462527e+000 1.332653e+000 8.000000e-001
      vertex   -2.209593e+000 1.719796e+000 8.000000e-001
    endloop
  endfacet
  facet normal -7.357239e-001 6.772816e-001 0.000000e+000
    outer loop
      vertex   -2.209593e+000 1.719796e+000 0.000000e+000
      vertex   -2.209593e+000 1.719796e+000 8.000000e-001
      vertex   -1.896388e+000 2.060027e+000 8.000000e-001
    endloop
  endfacet
  facet normal -6.142127e-001 7.891405e-001 0.000000e+000
    outer loop
      vertex   -1.896388e+000 2.060027e+000 0.000000e+000
      vertex   -1.896388e+000 2.060027e+000 8.000000e-001
      vertex   -1.531455e+000 2.344066e+000 8.000000e-001
    endloop
  endfacet
  facet normal -4.759474e-001 8.794738e-001 0.000000e+000
    outer loop
      vertex   -1.531455e+000 2.344066e+000 0.000000e+000
      vertex   -1.531455e+000 2.344066e+000 8.000000e-001
      vertex   -1.124747e+000 2.564165e+000 8.000000e-001
    endloop
  endfacet
  facet normal -3.246995e-001 9.458172e-001 0.000000e+000
    outer loop
      vertex   -1.124747e+000 2.564165e+000 0.000000e+000
      vertex   -1.124747e+000 2.564165e+000 8.000000e-001
      vertex   -6.873594e-001 2.714321e+000 8.000000e-001
    endloop
  endfacet
  facet normal -1.645946e-001 9.863613e-001 0.000000e+000
    outer loop
      vertex   -6.873594e-001 2.714321e+000 0.000000e+000
      vertex   -6.873594e-001 2.714321e+000 8.000000e-001
      vertex   -2.312222e-001 2.790437e+000 8.000000e-001
    endloop
  endfacet
  facet normal 0.000000e+000 1.000000e+000 0.000000e+000
    outer loop
      vertex   -2.312222e-001 2.790437e+000 0.000000e+000
      vertex   -2.312222e-001 2.790437e+000 8.000000e-001
      vertex   2.312222e-001 2.790437e+000 8.000000e-001
    endloop
  endfacet
  facet normal 1.645946e-001 9.863613e-001 -0.000000e+000
    outer loop
      vertex   2.312222e-001 2.790437e+000 0.000000e+000
      vertex   2.312222e-001 2.790437e+000 8.000000e-001
      vertex   6.873594e-001 2.714321e+000 8.000000e-001
    endloop
  endfacet
  facet normal 3.246995e-001 9.458172e-001 -0.000000e+000
    outer loop
      vertex   6.873594e-001 2.714321e+000 0.000000e+000
      vertex   6.873594e-001 2.714321e+000 8.000000e-001
      vertex   1.124747e+000 2.564165e+000 8.000000e-001
    endloop
  endfacet
  facet normal 4.759474e-001 8.794738e-001 -0.000000e+000
    outer loop
      vertex   1.124747e+000 2.564165e+000 0.000000e+000
      vertex   1.124747e+000 2.564165e+000 8.000000e-001
      vertex   1.531455e+000 2.344066e+000 8.000000e-001
    endloop
  endfacet
  facet normal 6.142127e-001 7.891405e-001 -0.000000e+000
    outer loop
      vertex   1.531455e+000 2.344066e+000 0.000000e+000
      vertex   1.531455e+000 2.344066e+000 8.000000e-001
      vertex   1.896388e+000 2.060027e+000 8.000000e-001
    endloop
  endfacet
  facet normal 7.357239e-001 6.772816e-001 -0.000000e+000
    outer loop
      vertex   1.896388e+000 2.060027e+000 0.000000e+000
      vertex   1.896388e+000 2.060027e+000 8.000000e-001
      vertex   2.209593e+000 1.719796e+000 8.000000e-001
    endloop
  endfacet
  facet normal 8.371665e-001 5.469482e-001 -0.000000e+000
    outer loop
      vertex   2.209593e+000 1.719796e+000 0.000000e+000
      vertex   2.209593e+000 1.719796e+000 8.000000e-001
      vertex   2.462527e+000 1.332653e+000 8.000000e-001
    endloop
  endfacet
  facet normal 9.157733e-001 4.016954e-001 -0.000000e+000
    outer loop
      vertex   2.462527e+000 1.332653e+000 0.000000e+000
      vertex   2.462527e+000 1.332653e+000 8.000000e-001
      vertex   2.648288e+000 9.091585e-001 8.000000e-001
    endloop
  endfacet
  facet normal 9.694003e-001 2.454855e-001 -0.000000e+000
    outer loop
      vertex   2.648288e+000 9.091585e-001 0.000000e+000
      vertex   2.648288e+000 9.091585e-001 8.000000e-001
      vertex   2.761812e+000 4.608649e-001 8.000000e-001
    endloop
  endfacet
  facet normal 9.965845e-001 8.257935e-002 -0.000000e+000
    outer loop
      vertex   2.761812e+000 4.608649e-001 0.000000e+000
      vertex   2.761812e+000 4.608649e-001 8.000000e-001
      vertex   2.800000e+000 1.028703e-015 8.000000e-001
    endloop
  endfacet
  facet normal 9.965845e-001 -8.257935e-002 7.079137e-017
    outer loop
      vertex   2.800000e+000 3.429011e-016 0.000000e+000
      vertex   2.800000e+000 1.028703e-015 8.000000e-001
      vertex   2.761812e+000 -4.608649e-001 8.000000e-001
    endloop
  endfacet
  facet normal 9.694003e-001 -2.454855e-001 0.000000e+000
    outer loop
      vertex   2.761812e+000 -4.608649e-001 0.000000e+000
      vertex   2.761812e+000 -4.608649e-001 8.000000e-001
      vertex   2.648288e+000 -9.091585e-001 8.000000e-001
    endloop
  endfacet
  facet normal 9.157733e-001 -4.016954e-001 0.000000e+000
    outer loop
      vertex   2.648288e+000 -9.091585e-001 0.000000e+000
      vertex   2.648288e+000 -9.091585e-001 8.000000e-001
      vertex   2.462527e+000 -1.332653e+000 8.000000e-001
    endloop
  endfacet
  facet normal 8.371665e-001 -5.469482e-001 0.000000e+000
    outer loop
      vertex   2.462527e+000 -1.332653e+000 0.000000e+000
      vertex   2.462527e+000 -1.332653e+000 8.000000e-001
      vertex   2.209593e+000 -1.719796e+000 8.000000e-001
    endloop
  endfacet
  facet normal 7.357239e-001 -6.772816e-001 0.000000e+000
    outer loop
      vertex   2.209593e+000 -1.719796e+000 0.000000e+000
      vertex   2.209593e+000 -1.719796e+000 8.000000e-001
      vertex   1.896388e+000 -2.060027e+000 8.000000e-001
    endloop
  endfacet
  facet normal 6.142127e-001 -7.891405e-001 0.000000e+000
    outer loop
      vertex   1.896388e+000 -2.060027e+000 0.000000e+000
      vertex   1.896388e+000 -2.060027e+000 8.000000e-001
      vertex   1.531455e+000 -2.344066e+000 8.000000e-001
    endloop
  endfacet
  facet normal 4.759474e-001 -8.794738e-001 0.000000e+000
    outer loop
      vertex   1.531455e+000 -2.344066e+000 0.000000e+000
      vertex   1.531455e+000 -2.344066e+000 8.000000e-001
      vertex   1.124747e+000 -2.564165e+000 8.000000e-001
    endloop
  endfacet
  facet normal 3.246995e-001 -9.458172e-001 0.000000e+000
    outer loop
      vertex   1.124747e+000 -2.564165e+000 0.000000e+000
      vertex   1.124747e+000 -2.564165e+000 8.000000e-001
      vertex   6.873594e-001 -2.714321e+000 8.000000e-001
    endloop
  endfacet
  facet normal 1.645946e-001 -9.863613e-001 0.000000e+000
    outer loop
      vertex   6.873594e-001 -2.714321e+000 0.000000e+000
      vertex   6.873594e-001 -2.714321e+000 8.000000e-001
      vertex   2.312222e-001 -2.790437e+000 8.000000e-001
    endloop
  endfacet
  facet normal 0.000000e+000 -1.000000e+000 0.000000e+000
    outer loop
      vertex   2.312222e-001 -2.790437e+000 0.000000e+000
      vertex   2.312222e-001 -2.790437e+000 8.000000e-001
      vertex   -2.312222e-001 -2.790437e+000 8.000000e-001
    endloop
  endfacet
  facet normal -1.645946e-001 -9.863613e-001 0.000000e+000
    outer loop
      vertex   -2.312222e-001 -2.790437e+000 0.000000e+000
      vertex   -2.312222e-001 -2.790437e+000 8.000000e-001
      vertex   -6.873594e-001 -2.714321e+000 8.000000e-001
    endloop
  endfacet
  facet normal -3.246995e-001 -9.458172e-001 0.000000e+000
    outer loop
      vertex   -6.873594e-001 -2.714321e+000 0.000000e+000
      vertex   -6.873594e-001 -2.714321e+000 8.000000e-001
      vertex   -1.124747e+000 -2.564165e+000 8.000000e-001
    endloop
  endfacet
  facet normal -4.759474e-001 -8.794738e-001 0.000000e+000
    outer loop
      vertex   -1.124747e+000 -2.564165e+000 0.000000e+000
      vertex   -1.124747e+000 -2.564165e+000 8.000000e-001
      vertex   -1.531455e+000 -2.344066e+000 8.000000e-001
    endloop
  endfacet
  facet normal -6.142127e-001 -7.891405e-001 0.000000e+000
    outer loop
      vertex   -1.531455e+000 -2.344066e+000 0.000000e+000
      vertex   -1.531455e+000 -2.344066e+000 8.000000e-001
      vertex   -1.896388e+000 -2.060027e+000 8.000000e-001
    endloop
  endfacet
  facet normal -7.357239e-001 -6.772816e-001 0.000000e+000
    outer loop
      vertex   -1.896388e+000 -2.060027e+000 0.000000e+000
      vertex   -1.896388e+000 -2.060027e+000 8.000000e-001
      vertex   -2.209593e+000 -1.719796e+000 8.000000e-001
    endloop
  endfacet
  facet normal -8.371665e-001 -5.469482e-001 0.000000e+000
    outer loop
      vertex   -2.209593e+000 -1.719796e+000 0.000000e+000
      vertex   -2.209593e+000 -1.719796e+000 8.000000e-001
      vertex   -2.462527e+000 -1.332653e+000 8.000000e-001
    endloop
  endfacet
  facet normal -9.157733e-001 -4.016954e-001 0.000000e+000
    outer loop
      vertex   -2.462527e+000 -1.332653e+000 0.000000e+000
      vertex   -2.462527e+000 -1.332653e+000 8.000000e-001
      vertex   -2.648288e+000 -9.091585e-001 8.000000e-001
    endloop
  endfacet
  facet normal -9.694003e-001 -2.454855e-001 0.000000e+000
    outer loop
      vertex   -2.648288e+000 -9.091585e-001 0.000000e+000
      vertex   -2.648288e+000 -9.091585e-001 8.000000e-001
      vertex   -2.761812e+000 -4.608649e-001 8.000000e-001
    endloop
  endfacet
  facet normal -9.965845e-001 -8.257935e-002 0.000000e+000
    outer loop
      vertex   -2.761812e+000 -4.608649e-001 0.000000e+000
      vertex   -2.761812e+000 -4.608649e-001 8.000000e-001
      vertex   -2.800000e+000 -6.858022e-016 8.000000e-001
    endloop
  endfacet
  facet normal -9.965845e-001 -8.257935e-002 -0.000000e+000
    outer loop
      vertex   -2.800000e+000 -6.858022e-016 8.000000e-001
      vertex   -2.800000e+000 -6.858022e-016 0.000000e+000
      vertex   -2.761812e+000 -4.608649e-001 0.000000e+000
    endloop
  endfacet
  facet normal -9.694003e-001 -2.454855e-001 -0.000000e+000
    outer loop
      vertex   -2.761812e+000 -4.608649e-001 8.000000e-001
      vertex   -2.761812e+000 -4.608649e-001 0.000000e+000
      vertex   -2.648288e+000 -9.091585e-001 0.000000e+000
    endloop
  endfacet
  facet normal -9.157733e-001 -4.016954e-001 -0.000000e+000
    outer loop
      vertex   -2.648288e+000 -9.091585e-001 8.000000e-001
      vertex   -2.648288e+000 -9.091585e-001 0.000000e+000
      vertex   -2.462527e+000 -1.332653e+000 0.000000e+000
    endloop
  endfacet
  facet normal -8.371665e-001 -5.469482e-001 -0.000000e+000
    outer loop
      vertex   -2.462527e+000 -1.332653e+000 8.000000e-001
      vertex   -2.462527e+000 -1.332653e+000 0.000000e+000
      vertex   -2.209593e+000 -1.719796e+000 0.000000e+000
    endloop
  endfacet
  facet normal -7.357239e-001 -6.772816e-001 -0.000000e+000
    outer loop
      vertex   -2.209593e+000 -1.719796e+000 8.000000e-001
      vertex   -2.209593e+000 -1.719796e+000 0.000000e+000
      vertex   -1.896388e+000 -2.060027e+000 0.000000e+000
    endloop
  endfacet
  facet normal -6.142127e-001 -7.891405e-001 -0.000000e+000
    outer loop
      vertex   -1.896388e+000 -2.060027e+000 8.000000e-001
      vertex   -1.896388e+000 -2.060027e+000 0.000000e+000
      vertex   -1.531455e+000 -2.344066e+000 0.000000e+000
    endloop
  endfacet
  facet normal -4.759474e-001 -8.794738e-001 -0.000000e+000
    outer loop
      vertex   -1.531455e+000 -2.344066e+000 8.000000e-001
      vertex   -1.531455e+000 -2.344066e+000 0.000000e+000
      vertex   -1.124747e+000 -2.564165e+000 0.000000e+000
    endloop
  endfacet
  facet normal -3.246995e-001 -9.458172e-001 -0.000000e+000
    outer loop
      vertex   -1.124747e+000 -2.564165e+000 8.000000e-001
      vertex   -1.124747e+000 -2.564165e+000 0.000000e+000
      vertex   -6.873594e-001 -2.714321e+000 0.000000e+000
    endloop
  endfacet
  facet normal -1.645946e-001 -9.863613e-001 -0.000000e+000
    outer loop
      vertex   -6.873594e-001 -2.714321e+000 8.000000e-001
      vertex   -6.873594e-001 -2.714321e+000 0.000000e+000
      vertex   -2.312222e-001 -2.790437e+000 0.000000e+000
    endloop
  endfacet
  facet normal 0.000000e+000 -1.000000e+000 0.000000e+000
    outer loop
      vertex   -2.312222e-001 -2.790437e+000 8.000000e-001
      vertex   -2.312222e-001 -2.790437e+000 0.000000e+000
      vertex   2.312222e-001 -2.790437e+000 0.000000e+000
    endloop
  endfacet
  facet normal 1.645946e-001 -9.863613e-001 0.000000e+000
    outer loop
      vertex   2.312222e-001 -2.790437e+000 8.000000e-001
      vertex   2.312222e-001 -2.790437e+000 0.000000e+000
      vertex   6.873594e-001 -2.714321e+000 0.000000e+000
    endloop
  endfacet
  facet normal 3.246995e-001 -9.458172e-001 0.000000e+000
    outer loop
      vertex   6.873594e-001 -2.714321e+000 8.000000e-001
      vertex   6.873594e-001 -2.714321e+000 0.000000e+000
      vertex   1.124747e+000 -2.564165e+000 0.000000e+000
    endloop
  endfacet
  facet normal 4.759474e-001 -8.794738e-001 0.000000e+000
    outer loop
      vertex   1.124747e+000 -2.564165e+000 8.000000e-001
      vertex   1.124747e+000 -2.564165e+000 0.000000e+000
      vertex   1.531455e+000 -2.344066e+000 0.000000e+000
    endloop
  endfacet
  facet normal 6.142127e-001 -7.891405e-001 0.000000e+000
    outer loop
      vertex   1.531455e+000 -2.344066e+000 8.000000e-001
      vertex   1.531455e+000 -2.344066e+000 0.000000e+000
      vertex   1.896388e+000 -2.060027e+000 0.000000e+000
    endloop
  endfacet
  facet normal 7.357239e-001 -6.772816e-001 0.000000e+000
    outer loop
      vertex   1.896388e+000 -2.060027e+000 8.000000e-001
      vertex   1.896388e+000 -2.060027e+000 0.000000e+000
      vertex   2.209593e+000 -1.719796e+000 0.000000e+000
    endloop
  endfacet
  facet normal 8.371665e-001 -5.469482e-001 0.000000e+000
    outer loop
      vertex   2.209593e+000 -1.719796e+000 8.000000e-001
      vertex   2.209593e+000 -1.719796e+000 0.000000e+000
      vertex   2.462527e+000 -1.332653e+000 0.000000e+000
    endloop
  endfacet
  facet normal 9.157733e-001 -4.016954e-001 0.000000e+000
    outer loop
      vertex   2.462527e+000 -1.332653e+000 8.000000e-001
      vertex   2.462527e+000 -1.332653e+000 0.000000e+000
      vertex   2.648288e+000 -9.091585e-001 0.000000e+000
    endloop
  endfacet
  facet normal 9.694003e-001 -2.454855e-001 0.000000e+000
    outer loop
      vertex   2.648288e+000 -9.091585e-001 8.000000e-001
      vertex   2.648288e+000 -9.091585e-001 0.000000e+000
      vertex   2.761812e+000 -4.608649e-001 0.000000e+000
    endloop
  endfacet
  facet normal 9.965845e-001 -8.257935e-002 0.000000e+000
    outer loop
      vertex   2.761812e+000 -4.608649e-001 8.000000e-001
      vertex   2.761812e+000 -4.608649e-001 0.000000e+000
      vertex   2.800000e+000 3.429011e-016 0.000000e+000
    endloop
  endfacet
  facet normal 9.965845e-001 8.257935e-002 -7.079137e-017
    outer loop
      vertex   2.800000e+000 1.028703e-015 8.000000e-001
      vertex   2.800000e+000 3.429011e-016 0.000000e+000
      vertex   2.761812e+000 4.608649e-001 0.000000e+000
    endloop
  endfacet
  facet normal 9.694003e-001 2.454855e-001 0.000000e+000
    outer loop
      vertex   2.761812e+000 4.608649e-001 8.000000e-001
      vertex   2.761812e+000 4.608649e-001 0.000000e+000
      vertex   2.648288e+000 9.091585e-001 0.000000e+000
    endloop
  endfacet
  facet normal 9.157733e-001 4.016954e-001 0.000000e+000
    outer loop
      vertex   2.648288e+000 9.091585e-001 8.000000e-001
      vertex   2.648288e+000 9.091585e-001 0.000000e+000
      vertex   2.462527e+000 1.332653e+000 0.000000e+000
    endloop
  endfacet
  facet normal 8.371665e-001 5.469482e-001 0.000000e+000
    outer loop
      vertex   2.462527e+000 1.332653e+000 8.000000e-001
      vertex   2.462527e+000 1.332653e+000 0.000000e+000
      vertex   2.209593e+000 1.719796e+000 0.000000e+000
    endloop
  endfacet
  facet normal 7.357239e-001 6.772816e-001 0.000000e+000
    outer loop
      vertex   2.209593e+000 1.719796e+000 8.000000e-001
      vertex   2.209593e+000 1.719796e+000 0.000000e+000
      vertex   1.896388e+000 2.060027e+000 0.000000e+000
    endloop
  endfacet
  facet normal 6.142127e-001 7.891405e-001 0.000000e+000
    outer loop
      vertex   1.896388e+000 2.060027e+000 8.000000e-001
      vertex   1.896388e+000 2.060027e+000 0.000000e+000
      vertex   1.531455e+000 2.344066e+000 0.000000e+000
    endloop
  endfacet
  facet normal 4.759474e-001 8.794738e-001 0.000000e+000
    outer loop
      vertex   1.531455e+000 2.344066e+000 8.000000e-001
      vertex   1.531455e+000 2.344066e+000 0.000000e+000
      vertex   1.124747e+000 2.564165e+000 0.000000e+000
    endloop
  endfacet
  facet normal 3.246995e-001 9.458172e-001 0.000000e+000
    outer loop
      vertex   1.124747e+000 2.564165e+000 8.000000e-001
      vertex   1.124747e+000 2.564165e+000 0.000000e+000
      vertex   6.873594e-001 2.714321e+000 0.000000e+000
    endloop
  endfacet
  facet normal 1.645946e-001 9.863613e-001 0.000000e+000
    outer loop
      vertex   6.873594e-001 2.714321e+000 8.000000e-001
      vertex   6.873594e-001 2.714321e+000 0.000000e+000
      vertex   2.312222e-001 2.790437e+000 0.000000e+000
    endloop
  endfacet
  facet normal 0.000000e+000 1.000000e+000 0.000000e+000
    outer loop
      vertex   2.312222e-001 2.790437e+000 8.000000e-001
      vertex   2.312222e-001 2.790437e+000 0.000000e+000
      vertex   -2.312222e-001 2.790437e+000 0.000000e+000
    endloop
  endfacet
  facet normal -1.645946e-001 9.863613e-001 0.000000e+000
    outer loop
      vertex   -2.312222e-001 2.790437e+000 8.000000e-001
      vertex   -2.312222e-001 2.790437e+000 0.000000e+000
      vertex   -6.873594e-001 2.714321e+000 0.000000e+000
    endloop
  endfacet
  facet normal -3.246995e-001 9.458172e-001 0.000000e+000
    outer loop
      vertex   -6.873594e-001 2.714321e+000 8.000000e-001
      vertex   -6.873594e-001 2.714321e+000 0.000000e+000
      vertex   -1.124747e+000 2.564165e+000 0.000000e+000
    endloop
  endfacet
  facet normal -4.759474e-001 8.794738e-001 0.000000e+000
    outer loop
      vertex   -1.124747e+000 2.564165e+000 8.000000e-001
      vertex   -1.124747e+000 2.564165e+000 0.000000e+000
      vertex   -1.531455e+000 2.344066e+000 0.000000e+000
    endloop
  endfacet
  facet normal -6.142127e-001 7.891405e-001 0.000000e+000
    outer loop
      vertex   -1.531455e+000 2.344066e+000 8.000000e-001
      vertex   -1.531455e+000 2.344066e+000 0.000000e+000
      vertex   -1.896388e+000 2.060027e+000 0.000000e+000
    endloop
  endfacet
  facet normal -7.357239e-001 6.772816e-001 0.000000e+000
    outer loop
      vertex   -1.896388e+000 2.060027e+000 8.000000e-001
      vertex   -1.896388e+000 2.060027e+000 0.000000e+000
      vertex   -2.209593e+000 1.719796e+000 0.000000e+000
    endloop
  endfacet
  facet normal -8.371665e-001 5.469482e-001 0.000000e+000
    outer loop
      vertex   -2.209593e+000 1.719796e+000 8.000000e-001
      vertex   -2.209593e+000 1.719796e+000 0.000000e+000
      vertex   -2.462527e+000 1.332653e+000 0.000000e+000
    endloop
  endfacet
  facet normal -9.157733e-001 4.016954e-001 0.000000e+000
    outer loop
      vertex   -2.462527e+000 1.332653e+000 8.000000e-001
      vertex   -2.462527e+000 1.332653e+000 0.000000e+000
      vertex   -2.648288e+000 9.091585e-001 0.000000e+000
    endloop
  endfacet
  facet normal -9.694003e-001 2.454855e-001 0.000000e+000
    outer loop
      vertex   -2.648288e+000 9.091585e-001 8.000000e-001
      vertex   -2.648288e+000 9.091585e-001 0.000000e+000
      vertex   -2.761812e+000 4.608649e-001 0.000000e+000
    endloop
  endfacet
  facet normal -9.965845e-001 8.257935e-002 0.000000e+000
    outer loop
      vertex   -2.761812e+000 4.608649e-001 8.000000e-001
      vertex   -2.761812e+000 4.608649e-001 0.000000e+000
      vertex   -2.800000e+000 -6.858022e-016 0.000000e+000
    endloop
  endfacet
  facet normal 0.000000e+000 0.000000e+000 -1.000000e+000
    outer loop
      vertex   -1.896388e+000 2.060027e+000 0.000000e+000
      vertex   -1.531455e+000 2.344066e+000 0.000000e+000
      vertex   -7.384842e-001 1.069879e+000 0.000000e+000
    endloop
  endfacet
  facet normal 0.000000e+000 0.000000e+000 -1.000000e+000
    outer loop
      vertex   -2.648288e+000 9.091585e-001 0.000000e+000
      vertex   -2.462527e+000 1.332653e+000 0.000000e+000
      vertex   -1.151093e+000 6.041401e-001 0.000000e+000
    endloop
  endfacet
  facet normal 0.000000e+000 0.000000e+000 -1.000000e+000
    outer loop
      vertex   -2.209593e+000 1.719796e+000 0.000000e+000
      vertex   -9.730640e-001 8.620595e-001 0.000000e+000
      vertex   -1.151093e+000 6.041401e-001 0.000000e+000
    endloop
  endfacet
  facet normal 0.000000e+000 0.000000e+000 -1.000000e+000
    outer loop
      vertex   -9.730640e-001 8.620595e-001 0.000000e+000
      vertex   -2.209593e+000 1.719796e+000 0.000000e+000
      vertex   -1.896388e+000 2.060027e+000 0.000000e+000
    endloop
  endfacet
  facet normal 0.000000e+000 0.000000e+000 -1.000000e+000
    outer loop
      vertex   -1.262224e+000 3.111104e-001 0.000000e+000
      vertex   -2.761812e+000 4.608649e-001 0.000000e+000
      vertex   -2.648288e+000 9.091585e-001 0.000000e+000
    endloop
  endfacet
  facet normal -0.000000e+000 0.000000e+000 -1.000000e+000
    outer loop
      vertex   -7.384842e-001 1.069879e+000 0.000000e+000
      vertex   -9.730640e-001 8.620595e-001 0.000000e+000
      vertex   -1.896388e+000 2.060027e+000 0.000000e+000
    endloop
  endfacet
  facet normal 0.000000e+000 0.000000e+000 -1.000000e+000
    outer loop
      vertex   -6.873594e-001 2.714321e+000 0.000000e+000
      vertex   -2.312222e-001 2.790437e+000 0.000000e+000
      vertex   -1.566977e-001 1.290522e+000 0.000000e+000
    endloop
  endfacet
  facet normal 0.000000e+000 0.000000e+000 -1.000000e+000
    outer loop
      vertex   -1.151093e+000 6.041401e-001 0.000000e+000
      vertex   -2.462527e+000 1.332653e+000 0.000000e+000
      vertex   -2.209593e+000 1.719796e+000 0.000000e+000
    endloop
  endfacet
  facet normal 0.000000e+000 0.000000e+000 -1.000000e+000
    outer loop
      vertex   -4.609864e-001 1.215521e+000 0.000000e+000
      vertex   -1.124747e+000 2.564165e+000 0.000000e+000
      vertex   -6.873594e-001 2.714321e+000 0.000000e+000
    endloop
  endfacet
  facet normal 0.000000e+000 0.000000e+000 -1.000000e+000
    outer loop
      vertex   -2.312222e-001 2.790437e+000 0.000000e+000
      vertex   2.312222e-001 2.790437e+000 0.000000e+000
      vertex   1.566977e-001 1.290522e+000 0.000000e+000
    endloop
  endfacet
  facet normal 0.000000e+000 0.000000e+000 -1.000000e+000
    outer loop
      vertex   6.873594e-001 2.714321e+000 0.000000e+000
      vertex   4.609864e-001 1.215521e+000 0.000000e+000
      vertex   1.566977e-001 1.290522e+000 0.000000e+000
    endloop
  endfacet
  facet normal -0.000000e+000 0.000000e+000 -1.000000e+000
    outer loop
      vertex   -1.151093e+000 6.041401e-001 0.000000e+000
      vertex   -1.262224e+000 3.111104e-001 0.000000e+000
      vertex   -2.648288e+000 9.091585e-001 0.000000e+000
    endloop
  endfacet
  facet normal 0.000000e+000 0.000000e+000 -1.000000e+000
    outer loop
      vertex   -1.124747e+000 2.564165e+000 0.000000e+000
      vertex   -4.609864e-001 1.215521e+000 0.000000e+000
      vertex   -7.384842e-001 1.069879e+000 0.000000e+000
    endloop
  endfacet
  facet normal 0.000000e+000 0.000000e+000 -1.000000e+000
    outer loop
      vertex   1.566977e-001 1.290522e+000 0.000000e+000
      vertex   -1.566977e-001 1.290522e+000 0.000000e+000
      vertex   -2.312222e-001 2.790437e+000 0.000000e+000
    endloop
  endfacet
  facet normal 0.000000e+000 0.000000e+000 -1.000000e+000
    outer loop
      vertex   1.566977e-001 1.290522e+000 0.000000e+000
      vertex   2.312222e-001 2.790437e+000 0.000000e+000
      vertex   6.873594e-001 2.714321e+000 0.000000e+000
    endloop
  endfacet
  facet normal 0.000000e+000 0.000000e+000 -1.000000e+000
    outer loop
      vertex   1.896388e+000 2.060027e+000 0.000000e+000
      vertex   9.730640e-001 8.620595e-001 0.000000e+000
      vertex   7.384842e-001 1.069879e+000 0.000000e+000
    endloop
  endfacet
  facet normal 0.000000e+000 0.000000e+000 -1.000000e+000
    outer loop
      vertex   2.648288e+000 9.091585e-001 0.000000e+000
      vertex   1.262224e+000 3.111104e-001 0.000000e+000
      vertex   1.151093e+000 6.041401e-001 0.000000e+000
    endloop
  endfacet
  facet normal 0.000000e+000 0.000000e+000 -1.000000e+000
    outer loop
      vertex   -7.384842e-001 1.069879e+000 0.000000e+000
      vertex   -1.531455e+000 2.344066e+000 0.000000e+000
      vertex   -1.124747e+000 2.564165e+000 0.000000e+000
    endloop
  endfacet
  facet normal 0.000000e+000 -0.000000e+000 -1.000000e+000
    outer loop
      vertex   6.873594e-001 2.714321e+000 0.000000e+000
      vertex   1.124747e+000 2.564165e+000 0.000000e+000
      vertex   4.609864e-001 1.215521e+000 0.000000e+000
    endloop
  endfacet
  facet normal 0.000000e+000 -0.000000e+000 -1.000000e+000
    outer loop
      vertex   1.124747e+000 2.564165e+000 0.000000e+000
      vertex   1.531455e+000 2.344066e+000 0.000000e+000
      vertex   7.384842e-001 1.069879e+000 0.000000e+000
    endloop
  endfacet
  facet normal 0.000000e+000 0.000000e+000 -1.000000e+000
    outer loop
      vertex   7.384842e-001 1.069879e+000 0.000000e+000
      vertex   1.531455e+000 2.344066e+000 0.000000e+000
      vertex   1.896388e+000 2.060027e+000 0.000000e+000
    endloop
  endfacet
  facet normal 0.000000e+000 0.000000e+000 -1.000000e+000
    outer loop
      vertex   1.151093e+000 6.041401e-001 0.000000e+000
      vertex   2.462527e+000 1.332653e+000 0.000000e+000
      vertex   2.648288e+000 9.091585e-001 0.000000e+000
    endloop
  endfacet
  facet normal 0.000000e+000 -0.000000e+000 -1.000000e+000
    outer loop
      vertex   2.761812e+000 4.608649e-001 0.000000e+000
      vertex   2.800000e+000 3.429011e-016 0.000000e+000
      vertex   1.300000e+000 4.776123e-016 0.000000e+000
    endloop
  endfacet
  facet normal -0.000000e+000 0.000000e+000 -1.000000e+000
    outer loop
      vertex   -1.566977e-001 1.290522e+000 0.000000e+000
      vertex   -4.609864e-001 1.215521e+000 0.000000e+000
      vertex   -6.873594e-001 2.714321e+000 0.000000e+000
    endloop
  endfacet
  facet normal 0.000000e+000 -0.000000e+000 -1.000000e+000
    outer loop
      vertex   1.896388e+000 2.060027e+000 0.000000e+000
      vertex   2.209593e+000 1.719796e+000 0.000000e+000
      vertex   9.730640e-001 8.620595e-001 0.000000e+000
    endloop
  endfacet
  facet normal 0.000000e+000 -0.000000e+000 -1.000000e+000
    outer loop
      vertex   2.209593e+000 1.719796e+000 0.000000e+000
      vertex   2.462527e+000 1.332653e+000 0.000000e+000
      vertex   1.151093e+000 6.041401e-001 0.000000e+000
    endloop
  endfacet
  facet normal 0.000000e+000 0.000000e+000 -1.000000e+000
    outer loop
      vertex   1.300000e+000 4.776123e-016 0.000000e+000
      vertex   1.262224e+000 3.111104e-001 0.000000e+000
      vertex   2.761812e+000 4.608649e-001 0.000000e+000
    endloop
  endfacet
  facet normal -0.000000e+000 0.000000e+000 -1.000000e+000
    outer loop
      vertex   2.648288e+000 -9.091585e-001 0.000000e+000
      vertex   2.462527e+000 -1.332653e+000 0.000000e+000
      vertex   1.151093e+000 -6.041401e-001 0.000000e+000
    endloop
  endfacet
  facet normal -0.000000e+000 0.000000e+000 -1.000000e+000
    outer loop
      vertex   6.873594e-001 -2.714321e+000 0.000000e+000
      vertex   2.312222e-001 -2.790437e+000 0.000000e+000
      vertex   1.566977e-001 -1.290522e+000 0.000000e+000
    endloop
  endfacet
  facet normal 0.000000e+000 0.000000e+000 -1.000000e+000
    outer loop
      vertex   7.384842e-001 1.069879e+000 0.000000e+000
      vertex   4.609864e-001 1.215521e+000 0.000000e+000
      vertex   1.124747e+000 2.564165e+000 0.000000e+000
    endloop
  endfacet
  facet normal 0.000000e+000 -0.000000e+000 -1.000000e+000
    outer loop
      vertex   2.648288e+000 9.091585e-001 0.000000e+000
      vertex   2.761812e+000 4.608649e-001 0.000000e+000
      vertex   1.262224e+000 3.111104e-001 0.000000e+000
    endloop
  endfacet
  facet normal 0.000000e+000 0.000000e+000 -1.000000e+000
    outer loop
      vertex   2.761812e+000 -4.608649e-001 0.000000e+000
      vertex   1.262224e+000 -3.111104e-001 0.000000e+000
      vertex   1.300000e+000 4.776123e-016 0.000000e+000
    endloop
  endfacet
  facet normal 0.000000e+000 0.000000e+000 -1.000000e+000
    outer loop
      vertex   1.262224e+000 -3.111104e-001 0.000000e+000
      vertex   2.761812e+000 -4.608649e-001 0.000000e+000
      vertex   2.648288e+000 -9.091585e-001 0.000000e+000
    endloop
  endfacet
  facet normal 0.000000e+000 0.000000e+000 -1.000000e+000
    outer loop
      vertex   4.609864e-001 -1.215521e+000 0.000000e+000
      vertex   1.124747e+000 -2.564165e+000 0.000000e+000
      vertex   6.873594e-001 -2.714321e+000 0.000000e+000
    endloop
  endfacet
  facet normal 0.000000e+000 0.000000e+000 -1.000000e+000
    outer loop
      vertex   2.312222e-001 -2.790437e+000 0.000000e+000
      vertex   -2.312222e-001 -2.790437e+000 0.000000e+000
      vertex   -1.566977e-001 -1.290522e+000 0.000000e+000
    endloop
  endfacet
  facet normal 0.000000e+000 0.000000e+000 -1.000000e+000
    outer loop
      vertex   -6.873594e-001 -2.714321e+000 0.000000e+000
      vertex   -4.609864e-001 -1.215521e+000 0.000000e+000
      vertex   -1.566977e-001 -1.290522e+000 0.000000e+000
    endloop
  endfacet
  facet normal 0.000000e+000 0.000000e+000 -1.000000e+000
    outer loop
      vertex   1.151093e+000 6.041401e-001 0.000000e+000
      vertex   9.730640e-001 8.620595e-001 0.000000e+000
      vertex   2.209593e+000 1.719796e+000 0.000000e+000
    endloop
  endfacet
  facet normal 0.000000e+000 0.000000e+000 -1.000000e+000
    outer loop
      vertex   1.151093e+000 -6.041401e-001 0.000000e+000
      vertex   1.262224e+000 -3.111104e-001 0.000000e+000
      vertex   2.648288e+000 -9.091585e-001 0.000000e+000
    endloop
  endfacet
  facet normal -0.000000e+000 0.000000e+000 -1.000000e+000
    outer loop
      vertex   1.896388e+000 -2.060027e+000 0.000000e+000
      vertex   1.531455e+000 -2.344066e+000 0.000000e+000
      vertex   7.384842e-001 -1.069879e+000 0.000000e+000
    endloop
  endfacet
  facet normal 0.000000e+000 0.000000e+000 -1.000000e+000
    outer loop
      vertex   -1.566977e-001 -1.290522e+000 0.000000e+000
      vertex   1.566977e-001 -1.290522e+000 0.000000e+000
      vertex   2.312222e-001 -2.790437e+000 0.000000e+000
    endloop
  endfacet
  facet normal 0.000000e+000 0.000000e+000 -1.000000e+000
    outer loop
      vertex   -1.566977e-001 -1.290522e+000 0.000000e+000
      vertex   -2.312222e-001 -2.790437e+000 0.000000e+000
      vertex   -6.873594e-001 -2.714321e+000 0.000000e+000
    endloop
  endfacet
  facet normal 0.000000e+000 0.000000e+000 -1.000000e+000
    outer loop
      vertex   1.300000e+000 4.776123e-016 0.000000e+000
      vertex   2.800000e+000 3.429011e-016 0.000000e+000
      vertex   2.761812e+000 -4.608649e-001 0.000000e+000
    endloop
  endfacet
  facet normal 0.000000e+000 0.000000e+000 -1.000000e+000
    outer loop
      vertex   2.209593e+000 -1.719796e+000 0.000000e+000
      vertex   9.730640e-001 -8.620595e-001 0.000000e+000
      vertex   1.151093e+000 -6.041401e-001 0.000000e+000
    endloop
  endfacet
  facet normal 0.000000e+000 0.000000e+000 -1.000000e+000
    outer loop
      vertex   9.730640e-001 -8.620595e-001 0.000000e+000
      vertex   2.209593e+000 -1.719796e+000 0.000000e+000
      vertex   1.896388e+000 -2.060027e+000 0.000000e+000
    endloop
  endfacet
  facet normal 0.000000e+000 0.000000e+000 -1.000000e+000
    outer loop
      vertex   1.124747e+000 -2.564165e+000 0.000000e+000
      vertex   4.609864e-001 -1.215521e+000 0.000000e+000
      vertex   7.384842e-001 -1.069879e+000 0.000000e+000
    endloop
  endfacet
  facet normal 0.000000e+000 0.000000e+000 -1.000000e+000
    outer loop
      vertex   -6.873594e-001 -2.714321e+000 0.000000e+000
      vertex   -1.124747e+000 -2.564165e+000 0.000000e+000
      vertex   -4.609864e-001 -1.215521e+000 0.000000e+000
    endloop
  endfacet
  facet normal 0.000000e+000 0.000000e+000 -1.000000e+000
    outer loop
      vertex   -1.124747e+000 -2.564165e+000 0.000000e+000
      vertex   -1.531455e+000 -2.344066e+000 0.000000e+000
      vertex   -7.384842e-001 -1.069879e+000 0.000000e+000
    endloop
  endfacet
  facet normal 0.000000e+000 0.000000e+000 -1.000000e+000
    outer loop
      vertex   -1.896388e+000 -2.060027e+000 0.000000e+000
      vertex   -9.730640e-001 -8.620595e-001 0.000000e+000
      vertex   -7.384842e-001 -1.069879e+000 0.000000e+000
    endloop
  endfacet
  facet normal 0.000000e+000 0.000000e+000 -1.000000e+000
    outer loop
      vertex   -2.648288e+000 -9.091585e-001 0.000000e+000
      vertex   -1.262224e+000 -3.111104e-001 0.000000e+000
      vertex   -1.151093e+000 -6.041401e-001 0.000000e+000
    endloop
  endfacet
  facet normal 0.000000e+000 0.000000e+000 -1.000000e+000
    outer loop
      vertex   1.151093e+000 -6.041401e-001 0.000000e+000
      vertex   2.462527e+000 -1.332653e+000 0.000000e+000
      vertex   2.209593e+000 -1.719796e+000 0.000000e+000
    endloop
  endfacet
  facet normal 0.000000e+000 0.000000e+000 -1.000000e+000
    outer loop
      vertex   7.384842e-001 -1.069879e+000 0.000000e+000
      vertex   1.531455e+000 -2.344066e+000 0.000000e+000
      vertex   1.124747e+000 -2.564165e+000 0.000000e+000
    endloop
  endfacet
  facet normal 0.000000e+000 -0.000000e+000 -1.000000e+000
    outer loop
      vertex   -7.384842e-001 -1.069879e+000 0.000000e+000
      vertex   -4.609864e-001 -1.215521e+000 0.000000e+000
      vertex   -1.124747e+000 -2.564165e+000 0.000000e+000
    endloop
  endfacet
  facet normal 0.000000e+000 0.000000e+000 -1.000000e+000
    outer loop
      vertex   -7.384842e-001 -1.069879e+000 0.000000e+000
      vertex   -1.531455e+000 -2.344066e+000 0.000000e+000
      vertex   -1.896388e+000 -2.060027e+000 0.000000e+000
    endloop
  endfacet
  facet normal 0.000000e+000 0.000000e+000 -1.000000e+000
    outer loop
      vertex   -2.209593e+000 -1.719796e+000 0.000000e+000
      vertex   -2.462527e+000 -1.332653e+000 0.000000e+000
      vertex   -1.151093e+000 -6.041401e-001 0.000000e+000
    endloop
  endfacet
  facet normal 0.000000e+000 0.000000e+000 -1.000000e+000
    outer loop
      vertex   -1.151093e+000 -6.041401e-001 0.000000e+000
      vertex   -2.462527e+000 -1.332653e+000 0.000000e+000
      vertex   -2.648288e+000 -9.091585e-001 0.000000e+000
    endloop
  endfacet
  facet normal 0.000000e+000 0.000000e+000 -1.000000e+000
    outer loop
      vertex   7.384842e-001 -1.069879e+000 0.000000e+000
      vertex   9.730640e-001 -8.620595e-001 0.000000e+000
      vertex   1.896388e+000 -2.060027e+000 0.000000e+000
    endloop
  endfacet
  facet normal 0.000000e+000 0.000000e+000 -1.000000e+000
    outer loop
      vertex   -1.896388e+000 -2.060027e+000 0.000000e+000
      vertex   -2.209593e+000 -1.719796e+000 0.000000e+000
      vertex   -9.730640e-001 -8.620595e-001 0.000000e+000
    endloop
  endfacet
  facet normal 0.000000e+000 0.000000e+000 -1.000000e+000
    outer loop
      vertex   -2.648288e+000 -9.091585e-001 0.000000e+000
      vertex   -2.761812e+000 -4.608649e-001 0.000000e+000
      vertex   -1.262224e+000 -3.111104e-001 0.000000e+000
    endloop
  endfacet
  facet normal 0.000000e+000 0.000000e+000 -1.000000e+000
    outer loop
      vertex   -2.761812e+000 -4.608649e-001 0.000000e+000
      vertex   -2.800000e+000 -6.858022e-016 0.000000e+000
      vertex   -1.300000e+000 -3.184082e-016 0.000000e+000
    endloop
  endfacet
  facet normal 0.000000e+000 0.000000e+000 -1.000000e+000
    outer loop
      vertex   1.566977e-001 -1.290522e+000 0.000000e+000
      vertex   4.609864e-001 -1.215521e+000 0.000000e+000
      vertex   6.873594e-001 -2.714321e+000 0.000000e+000
    endloop
  endfacet
  facet normal 0.000000e+000 -0.000000e+000 -1.000000e+000
    outer loop
      vertex   -1.300000e+000 -3.184082e-016 0.000000e+000
      vertex   -1.262224e+000 -3.111104e-001 0.000000e+000
      vertex   -2.761812e+000 -4.608649e-001 0.000000e+000
    endloop
  endfacet
  facet normal 0.000000e+000 -0.000000e+000 -1.000000e+000
    outer loop
      vertex   -1.151093e+000 -6.041401e-001 0.000000e+000
      vertex   -9.730640e-001 -8.620595e-001 0.000000e+000
      vertex   -2.209593e+000 -1.719796e+000 0.000000e+000
    endloop
  endfacet
  facet normal -0.000000e+000 0.000000e+000 -1.000000e+000
    outer loop
      vertex   -1.262224e+000 3.111104e-001 0.000000e+000
      vertex   -1.300000e+000 -3.184082e-016 0.000000e+000
      vertex   -2.761812e+000 4.608649e-001 0.000000e+000
    endloop
  endfacet
  facet normal -0.000000e+000 0.000000e+000 -1.000000e+000
    outer loop
      vertex   -1.300000e+000 -3.184082e-016 0.000000e+000
      vertex   -2.800000e+000 -6.858022e-016 0.000000e+000
      vertex   -2.761812e+000 4.608649e-001 0.000000e+000
    endloop
  endfacet
endsolid
